<svg version="1.2" xmlns="http://www.w3.org/2000/svg" viewBox="0 0 1100 850" width="1100" height="850">
	<title>programmer_v_02-ai</title>
	<style>
		.s0 { fill: #fffbe9 } 
		.s1 { fill: #545454 } 
		.s2 { fill: #92a32b } 
		.s3 { fill: #bee41b } 
		.s4 { fill: #fde427 } 
		.s5 { fill: #16b1b5 } 
		.s6 { fill: #46f2f2 } 
		.s7 { fill: #d3b81a } 
		.s8 { fill: #aa3c6e } 
		.s9 { fill: #ff5593 } 
		.s10 { fill: #ffffff } 
		.s11 { fill: #d7e0e0 } 
		.s12 { fill: #ff1717 } 
		.s13 { fill: #579334 } 
		.s14 { fill: #3d3d3d } 
		.s15 { fill: #707070 } 
		.s16 { fill: #a0a0a0 } 
		.s17 { opacity: .7;mix-blend-mode: multiply;fill: #212e35 } 
		.s18 { fill: #cccccc } 
		.s19 { fill: #302530 } 
		.s20 { fill: #60485e } 
		.s21 { fill: #423241 } 
		.s22 { fill: #603043 } 
		.s23 { fill: #00788c } 
		.s24 { fill: #757573 } 
		.s25 { fill: #999995 } 
		.s26 { fill: #544753 } 
		.s27 { fill: #cacea5 } 
		.s28 { fill: #e0e8bf } 
		.s29 { fill: #353535 } 
		.s30 { fill: #ff5821 } 
		.s31 { fill: #889f33 } 
		.s32 { fill: #9c9e8f } 
		.s33 { fill: #c9ccbc } 
		.s34 { fill: #728425 } 
		.s35 { fill: #212030 } 
		.s36 { fill: #ffa471 } 
		.s37 { fill: #171721 } 
		.s38 { fill: #636363 } 
		.s39 { fill: #f2edee } 
		.s40 { fill: #f2f0eb } 
		.s41 { fill: #e07f4f } 
		.s42 { fill: #121c26 } 
		.s43 { fill: #49211c } 
		.s44 { fill: #d83a0f } 
		.s45 { fill: #3c3c56 } 
		.s46 { fill: #8a8a8e } 
		.s47 { fill: #44283e } 
		.s48 { fill: #553d57 } 
		.s49 { opacity: .7;mix-blend-mode: color-dodge;fill: #49363e } 
		.s50 { fill: #69698e } 
		.s51 { fill: #2d2d3f } 
		.s52 { fill: #1d1d28 } 
		.s53 { fill: #49363e } 
		.s54 { fill: #717199 } 
		.s55 { fill: #00b8d6 } 
		.s56 { fill: #663445 } 
		.s57 { fill: #ff2e2e } 
		.s58 { fill: #ff5555 } 
		.s59 { opacity: .5;mix-blend-mode: color-dodge;fill: #fc8f35 } 
	</style>
	<g id="_Artboards_">
	</g>
	<g id="Layer 1">
		<g id="&lt;Group&gt;">
			<g id="&lt;Group&gt;">
				<g id="&lt;Group&gt;">
					<path id="&lt;Path&gt;" class="s0" d="m1066.6 691.4c-6.7 44-24.9 86-49.7 124.1q-6.8 10.5-14.3 20.5h-895.5c-4.5-6.6-8.9-13.4-13-20.5-25.2-42.5-44.2-92.1-51.2-134.4-11.8-70.6 4.2-134.2 52.3-189.4 26.8-30.8 59.9-46.1 96.3-63-57.4-167.9 118.9-316.1 274.2-364 213.7-65.9 558.3-19.1 569.6 242.5 2.8 66-10.1 127.1-55.6 178.8 0.9-0.3 1.7-1.7 2.4-2.3 71.6 38.6 95.7 134.7 84.5 207.7z"/>
				</g>
				<path id="&lt;Path&gt;" class="s1" d="m1077.1 815.5v20.5h-1054.2v-20.5z"/>
			</g>
			<g id="&lt;Group&gt;">
				<g id="&lt;Group&gt;">
					<g id="&lt;Group&gt;">
						<g id="&lt;Group&gt;">
							<g id="&lt;Group&gt;">
								<path id="&lt;Path&gt;" class="s2" d="m324.2 381.6l-38.7 6.2c6.5 13.8 4.2 29.1 1 42.9 13.4 0.4 27.1 5.9 40.2 2.6 6.4-15.9 3.2-35.6-2.5-51.7z"/>
							</g>
							<g id="&lt;Group&gt;">
								<path id="&lt;Path&gt;" class="s3" d="m325.9 377.2l-38.6 6.2c6.4 13.8 4.1 29.1 1 42.9 13.4 0.4 27 5.9 40.1 2.6 6.5-15.9 3.3-35.6-2.5-51.7z"/>
							</g>
						</g>
						<path id="&lt;Path&gt;" class="s2" d="m297.3 394.8c7.4-2.1 14.9-3.1 22.6-3.1 1 0 1-1.5 0-1.4-7.8 0-15.5 1-23 3.1-0.9 0.2-0.5 1.6 0.4 1.4z"/>
						<path id="&lt;Path&gt;" class="s2" d="m299 400.5c9.2-2.6 18.7-3.6 28.1-4.9 1-0.1 0.6-1.5-0.3-1.4-9.5 1.3-19 2.3-28.2 4.9-0.9 0.2-0.5 1.6 0.4 1.4z"/>
						<path id="&lt;Path&gt;" class="s2" d="m297.5 406.2c8.8-0.5 17.1-3.9 25.7-5.7 0.9-0.2 0.5-1.6-0.4-1.4-8.4 1.8-16.6 5.1-25.3 5.6-0.9 0.1-0.9 1.6 0 1.5z"/>
						<path id="&lt;Path&gt;" class="s2" d="m301.7 410.6c9-2.3 18.1-4.5 27.2-6.6 0.9-0.2 0.5-1.6-0.4-1.4-9.1 2.1-18.2 4.3-27.2 6.6-0.9 0.2-0.5 1.6 0.4 1.4z"/>
					</g>
					<g id="&lt;Group&gt;">
						<g id="&lt;Group&gt;">
							<g id="&lt;Group&gt;">
								<path id="&lt;Path&gt;" class="s2" d="m749.5 135l35 11.7c-8.1 11.9-8.4 26.4-7.5 39.8-12.6-1.7-26.2 1.3-37.8-3.8-3.6-15.8 2.4-33.7 10.3-47.7z"/>
							</g>
							<g id="&lt;Group&gt;">
								<path id="&lt;Path&gt;" class="s4" d="m748.5 130.6l35 11.7c-8.1 11.9-8.3 26.5-7.5 39.8-12.6-1.6-26.1 1.4-37.8-3.7-3.6-15.8 2.5-33.7 10.3-47.8z"/>
							</g>
						</g>
						<path id="&lt;Path&gt;" class="s2" d="m772.5 151.4c-6.6-3.1-13.5-5.2-20.6-6.4-0.9-0.1-0.7-1.5 0.2-1.3 7.3 1.2 14.3 3.3 21 6.4 0.8 0.4 0.2 1.6-0.6 1.3z"/>
						<path id="&lt;Path&gt;" class="s2" d="m770 156.4c-8.2-3.8-16.9-6.2-25.5-8.8-0.8-0.3-0.2-1.5 0.6-1.3 8.6 2.7 17.3 5 25.4 8.9 0.8 0.3 0.3 1.6-0.5 1.2z"/>
						<path id="&lt;Path&gt;" class="s2" d="m770.5 162c-8.1-1.9-15.3-6.3-23-9.3-0.9-0.3-0.3-1.6 0.5-1.3 7.6 3 14.7 7.4 22.7 9.2 0.9 0.2 0.7 1.6-0.2 1.4z"/>
						<path id="&lt;Path&gt;" class="s2" d="m765.9 165.4c-8-3.5-16.2-6.9-24.3-10.3-0.8-0.4-0.2-1.6 0.6-1.3 8.1 3.4 16.2 6.9 24.3 10.4 0.8 0.3 0.3 1.6-0.6 1.2z"/>
					</g>
					<g id="&lt;Group&gt;">
						<g id="&lt;Group&gt;">
							<g id="&lt;Group&gt;">
								<path id="&lt;Path&gt;" class="s5" d="m296.1 206.9l-38.6 6.2c6.4 13.8 4.1 29.1 1 42.9 13.4 0.4 27 5.9 40.1 2.6 6.5-15.9 3.3-35.6-2.5-51.7z"/>
							</g>
							<g id="&lt;Group&gt;">
								<path id="&lt;Path&gt;" class="s6" d="m297.9 202.6l-38.7 6.1c6.5 13.8 4.2 29.1 1 42.9 13.4 0.4 27.1 5.9 40.2 2.6-0.4-15 0.8-34.3-2.5-51.6z"/>
							</g>
						</g>
						<path id="&lt;Path&gt;" class="s5" d="m271.4 222.4c5.7-2 11.5-3 17.4-3 0.7 0 0.7-1.5 0-1.5-6 0-11.9 1-17.7 3.1-0.7 0.3-0.4 1.7 0.3 1.4z"/>
						<path id="&lt;Path&gt;" class="s5" d="m272.7 228.1c7.1-2.6 14.4-3.5 21.6-4.8 0.8-0.1 0.5-1.5-0.3-1.4-7.2 1.3-14.5 2.2-21.6 4.8-0.7 0.3-0.4 1.7 0.3 1.4z"/>
						<path id="&lt;Path&gt;" class="s5" d="m271.5 233.9c6.8-0.6 13.2-3.9 19.8-5.8 0.7-0.2 0.4-1.6-0.3-1.4-6.5 1.8-12.8 5.2-19.5 5.7-0.7 0.1-0.7 1.5 0 1.5z"/>
						<path id="&lt;Path&gt;" class="s5" d="m274.7 238.2c7-2.2 14-4.4 21-6.6 0.7-0.2 0.4-1.6-0.3-1.4-7 2.2-14 4.4-21 6.6-0.7 0.2-0.4 1.7 0.3 1.4z"/>
					</g>
					<g id="&lt;Group&gt;">
						<g id="&lt;Group&gt;">
							<g id="&lt;Group&gt;">
								<path id="&lt;Path&gt;" class="s2" d="m383.3 207.7l-38.7 6.2c6.5 13.8 4.2 29.1 1 42.9 13.4 0.4 27.1 5.9 40.2 2.6 6.4-15.9 3.2-35.6-2.5-51.7z"/>
							</g>
							<g id="&lt;Group&gt;">
								<path id="&lt;Path&gt;" class="s3" d="m385 203.3l-38.6 6.2c6.4 13.8 4.1 29.1 1 42.9 13.4 0.4 27 5.9 40.1 2.6 6.5-15.9 3.3-35.6-2.5-51.7z"/>
							</g>
						</g>
						<path id="&lt;Path&gt;" class="s2" d="m356.4 220.8c7.4-2 14.9-3 22.6-3 1 0 1-1.5 0-1.5-7.8 0.1-15.5 1.1-23 3.1-0.9 0.3-0.5 1.7 0.4 1.4z"/>
						<path id="&lt;Path&gt;" class="s2" d="m358.1 226.6c9.2-2.6 18.7-3.6 28.1-4.9 1-0.1 0.6-1.5-0.3-1.4-9.5 1.3-19 2.3-28.2 4.8-0.9 0.3-0.5 1.7 0.4 1.5z"/>
						<path id="&lt;Path&gt;" class="s2" d="m356.6 232.3c8.8-0.5 17.1-3.9 25.7-5.7 0.9-0.2 0.5-1.7-0.4-1.5-8.4 1.9-16.6 5.2-25.3 5.7-0.9 0.1-0.9 1.5 0 1.5z"/>
						<path id="&lt;Path&gt;" class="s2" d="m360.8 236.7c9-2.3 18.1-4.5 27.2-6.6 0.9-0.2 0.5-1.7-0.4-1.4-9.1 2.1-18.2 4.3-27.2 6.5-0.9 0.3-0.5 1.7 0.4 1.5z"/>
					</g>
					<g id="&lt;Group&gt;">
						<g id="&lt;Group&gt;">
							<g id="&lt;Group&gt;">
								<path id="&lt;Path&gt;" class="s7" d="m250 341.7l-33.4 1.8c4.4 14-1.1 30.4 4.5 44.7 9.3-1.2 21.5-0.4 30.5-3.6 0.7-12.9 2.6-30.9-1.6-42.9z"/>
							</g>
							<g id="&lt;Group&gt;">
								<path id="&lt;Path&gt;" class="s4" d="m252.6 338.2l-33.4 1.8c4.4 14-1.1 30.4 4.6 44.7 9.2-1.2 21.4-0.5 30.4-3.6 0.7-12.9 2.6-30.9-1.6-42.9z"/>
							</g>
						</g>
						<path id="&lt;Path&gt;" class="s7" d="m226 353.9c2 0.8 4.8 0 6.7-0.4 3-0.5 6-1.3 9.1-1.7 0.9-0.1 0.9-1.6 0-1.4-2.7 0.3-5.4 0.9-8 1.4q-2.1 0.4-4.1 0.8c-0.8 0.1-2.2 0.4-2.9 0-0.9-0.3-1.6 0.9-0.8 1.3z"/>
						<path id="&lt;Path&gt;" class="s7" d="m224.2 359.3c8.3-1 16.3-3.1 24.3-5.3 1-0.3 0.6-1.7-0.3-1.4-7.9 2.2-15.9 4.3-24 5.2-0.9 0.1-0.9 1.6 0 1.5z"/>
						<path id="&lt;Path&gt;" class="s7" d="m226.8 363.2c4.6-0.6 8.9-2.1 13.4-3.1 0.9-0.2 0.5-1.6-0.4-1.4-4.3 1-8.6 2.5-13 3.1-0.9 0.1-0.9 1.6 0 1.4z"/>
						<path id="&lt;Path&gt;" class="s7" d="m228 365.5c0.5 0.9 1.9 0.8 2.8 0.7 1.9-0.1 3.9-0.5 5.7-1 4.1-0.9 8.1-2 12-3.3 0.9-0.3 0.6-1.7-0.3-1.4-3.4 1.1-6.7 2-10.1 2.9-1.9 0.5-3.8 0.9-5.8 1.2-0.4 0.1-2.9 0.5-3.1 0.2-0.5-0.8-1.8-0.1-1.2 0.7z"/>
						<path id="&lt;Path&gt;" class="s7" d="m229.3 367c-0.5 0.7-0.9 0.7-1 1.7 0 0.3 0.4 0.7 0.7 0.7 4.9 0 9.7-0.9 14.3-2.7 0.8-0.3 0.5-1.7-0.4-1.4-4.5 1.7-9.1 2.6-13.9 2.6q0.4 0.4 0.8 0.8c0-0.3 0.6-0.8 0.7-1 0.5-0.8-0.7-1.5-1.2-0.7z"/>
						<path id="&lt;Path&gt;" class="s7" d="m233.9 371c2.5 1.7 6 1 8.7 1 1 0 1-1.5 0-1.4-2.4 0-5.8 0.6-7.9-0.8-0.8-0.5-1.6 0.7-0.8 1.2z"/>
					</g>
					<g id="&lt;Group&gt;">
						<g id="&lt;Group&gt;">
							<g id="&lt;Group&gt;">
								<path id="&lt;Path&gt;" class="s7" d="m895.1 272.2l-33.4 1.7c4.4 14.1-1.1 30.4 4.6 44.7 9.2-1.1 21.4-0.4 30.4-3.5 0.7-13 2.6-30.9-1.6-42.9z"/>
							</g>
							<g id="&lt;Group&gt;">
								<path id="&lt;Path&gt;" class="s4" d="m897.8 268.7l-33.4 1.7c4.4 14.1-1.1 30.4 4.5 44.7 9.3-1.1 21.5-0.4 30.5-3.5 0.7-13 2.6-30.9-1.6-42.9z"/>
							</g>
						</g>
						<path id="&lt;Path&gt;" class="s7" d="m871.2 284.4c1.9 0.8 4.7-0.1 6.7-0.4 3-0.6 6-1.4 9-1.7 0.9-0.1 1-1.6 0-1.5-2.7 0.3-5.3 0.9-8 1.5q-2 0.4-4.1 0.7c-0.8 0.1-2.1 0.4-2.9 0.1-0.8-0.4-1.6 0.9-0.7 1.3z"/>
						<path id="&lt;Path&gt;" class="s7" d="m869.3 289.7c8.3-0.9 16.4-3 24.4-5.3 0.9-0.2 0.5-1.6-0.4-1.4-7.9 2.2-15.8 4.3-24 5.3-0.9 0.1-0.9 1.5 0 1.4z"/>
						<path id="&lt;Path&gt;" class="s7" d="m872 293.7c4.5-0.6 8.9-2.1 13.4-3.1 0.9-0.2 0.5-1.6-0.4-1.4-4.4 0.9-8.6 2.4-13 3-0.9 0.1-0.9 1.6 0 1.5z"/>
						<path id="&lt;Path&gt;" class="s7" d="m873.1 296c0.6 0.9 1.9 0.8 2.9 0.7 1.9-0.1 3.8-0.6 5.7-1 4-0.9 8.1-2.1 12-3.4 0.9-0.3 0.5-1.7-0.4-1.4-3.3 1.1-6.7 2.1-10 2.9-2 0.5-3.9 0.9-5.8 1.2-0.5 0.1-2.9 0.5-3.1 0.2-0.5-0.8-1.8 0-1.3 0.8z"/>
						<path id="&lt;Path&gt;" class="s7" d="m874.4 297.4c-0.4 0.7-0.9 0.8-1 1.7 0 0.4 0.4 0.7 0.8 0.7 4.9 0 9.7-0.9 14.2-2.6 0.9-0.4 0.5-1.8-0.4-1.4-4.4 1.7-9.1 2.5-13.8 2.6q0.3 0.3 0.7 0.7c0-0.2 0.7-0.8 0.8-1 0.5-0.7-0.8-1.5-1.3-0.7z"/>
						<path id="&lt;Path&gt;" class="s7" d="m879.1 301.5c2.4 1.6 5.9 1 8.7 1 0.9 0 0.9-1.5 0-1.5-2.5 0-5.8 0.7-8-0.8-0.8-0.5-1.5 0.8-0.7 1.3z"/>
					</g>
					<g id="&lt;Group&gt;">
						<g id="&lt;Group&gt;">
							<g id="&lt;Group&gt;">
								<path id="&lt;Path&gt;" class="s7" d="m545.9 290.2l-33.4 1.7c4.4 14.1-1.1 30.4 4.5 44.7 9.3-1.1 21.5-0.4 30.5-3.5 0.7-13 2.6-30.9-1.6-42.9z"/>
							</g>
							<g id="&lt;Group&gt;">
								<path id="&lt;Path&gt;" class="s4" d="m548.5 286.7l-33.4 1.7c4.4 14.1-1.1 30.4 4.6 44.7 9.2-1.1 21.4-0.4 30.4-3.5 0.7-13 2.6-30.9-1.6-42.9z"/>
							</g>
						</g>
						<path id="&lt;Path&gt;" class="s7" d="m521.9 302.4c2 0.8 4.8-0.1 6.7-0.4 3-0.6 6-1.4 9.1-1.7 0.9-0.2 0.9-1.6 0-1.5-2.7 0.3-5.4 0.9-8 1.5q-2.1 0.4-4.1 0.7c-0.8 0.1-2.2 0.4-2.9 0.1-0.9-0.4-1.6 0.9-0.8 1.3z"/>
						<path id="&lt;Path&gt;" class="s7" d="m520.1 307.7c8.3-0.9 16.3-3.1 24.3-5.3 1-0.2 0.6-1.6-0.3-1.4-7.9 2.2-15.9 4.3-24 5.3-0.9 0.1-0.9 1.5 0 1.4z"/>
						<path id="&lt;Path&gt;" class="s7" d="m522.7 311.7c4.6-0.6 8.9-2.1 13.4-3.1 0.9-0.2 0.5-1.6-0.4-1.4-4.3 0.9-8.6 2.4-13 3-0.9 0.1-0.9 1.6 0 1.5z"/>
						<path id="&lt;Path&gt;" class="s7" d="m523.9 313.9c0.5 1 1.9 0.8 2.8 0.8 1.9-0.1 3.9-0.6 5.7-1 4.1-0.9 8.1-2.1 12-3.4 0.9-0.3 0.6-1.7-0.3-1.4-3.3 1.1-6.7 2.1-10.1 2.9-1.9 0.5-3.8 0.9-5.8 1.2-0.4 0.1-2.9 0.5-3.1 0.2-0.5-0.8-1.7-0.1-1.2 0.7z"/>
						<path id="&lt;Path&gt;" class="s7" d="m525.2 315.4c-0.5 0.7-0.9 0.8-1 1.7 0 0.4 0.4 0.7 0.7 0.7 4.9 0 9.7-0.9 14.3-2.6 0.8-0.4 0.5-1.8-0.4-1.4-4.4 1.7-9.1 2.5-13.9 2.6q0.4 0.3 0.8 0.7c0-0.2 0.6-0.8 0.7-1 0.5-0.8-0.7-1.5-1.2-0.7z"/>
						<path id="&lt;Path&gt;" class="s7" d="m529.8 319.5c2.5 1.6 6 1 8.7 1 1 0 1-1.5 0-1.5-2.4 0-5.8 0.7-7.9-0.8-0.8-0.5-1.6 0.8-0.8 1.3z"/>
					</g>
					<g id="&lt;Group&gt;">
						<g id="&lt;Group&gt;">
							<g id="&lt;Group&gt;">
								<path id="&lt;Path&gt;" class="s8" d="m330 347.8c-4.4-12-8.4-24.4-11.5-37.4-7.3 9.4-34.5 10.6-34.5 10.6 5.9 12.9 11.5 29.4 11.5 43.2 11.6-4.1 23.6-10.2 34.5-16.4z"/>
							</g>
							<g id="&lt;Group&gt;">
								<path id="&lt;Path&gt;" class="s9" d="m330.8 344c-4.4-12.1-8.4-24.5-11.5-37.4-7.3 9.3-34.5 10.6-34.5 10.6 5.9 12.8 11.5 29.3 11.5 43.1 11.6-4.1 23.6-10.2 34.5-16.3z"/>
							</g>
						</g>
						<path id="&lt;Path&gt;" class="s8" d="m298.9 326.5c2.7 1 5.8-0.2 8.4-1.2 3-1.2 5.9-2.9 8.8-4.6 0.8-0.5 0-1.8-0.8-1.3-2.4 1.5-4.9 2.9-7.5 4.1-2.4 1.1-5.8 2.6-8.5 1.6-0.9-0.3-1.3 1.1-0.4 1.4z"/>
						<path id="&lt;Path&gt;" class="s8" d="m301 332.4c3.2-1.4 6.6-2.1 9.8-3.5 0.8-0.3 0.5-1.7-0.4-1.4-3.3 1.4-6.8 2.2-10.1 3.6-0.9 0.4-0.2 1.7 0.7 1.3z"/>
						<path id="&lt;Path&gt;" class="s8" d="m300.5 334.3c3.7 1.6 8.1-0.7 11.6-2.1 0.9-0.3 0.5-1.7-0.4-1.4-3.2 1.3-7.4 3.5-10.9 2.1-0.8-0.4-1.2 1-0.3 1.4z"/>
						<path id="&lt;Path&gt;" class="s8" d="m298.9 341.6c5.8-3.4 12.4-5.1 18.7-7.6 0.8-0.4 0.5-1.8-0.4-1.4-6.4 2.5-13.1 4.3-19.1 7.7-0.8 0.5 0 1.8 0.8 1.3z"/>
						<path id="&lt;Path&gt;" class="s8" d="m302.9 345.6c4.1-1.6 8.1-3.2 12-5.1 0.9-0.4 0.2-1.6-0.7-1.2-3.8 1.8-7.7 3.3-11.7 4.8-0.8 0.4-0.5 1.8 0.4 1.5z"/>
						<path id="&lt;Path&gt;" class="s8" d="m304.4 348.1c1.5 0.6 3.5-0.6 4.8-1.1 2.2-1.1 4.4-2.2 6.5-3.5 0.8-0.5 0.1-1.7-0.7-1.3q-2.6 1.6-5.3 2.9-1.4 0.7-2.9 1.3c-0.3 0.1-1.4 0.6-1.7 0.5-0.8-0.4-1.6 0.8-0.7 1.2z"/>
					</g>
					<g id="&lt;Group&gt;">
						<g id="&lt;Group&gt;">
							<g id="&lt;Group&gt;" style="opacity: .6;mix-blend-mode: multiply">
								<path id="&lt;Path&gt;" class="s5" d="m323.7 232.2c-4.5-12-8.4-24.4-11.5-37.4-7.3 9.4-34.5 10.6-34.5 10.6 5.9 12.9 11.5 29.4 11.5 43.2 11.6-4.1 23.6-10.2 34.5-16.4z"/>
							</g>
							<g id="&lt;Group&gt;">
								<path id="&lt;Path&gt;" class="s9" d="m324.5 228.4c-4.5-12.1-8.4-24.5-11.5-37.4-25.1 7.6-35.3 14.4-35.3 14.4 5.9 12.9 12.3 25.5 12.3 39.3 11.6-4.1 23.6-10.2 34.5-16.3z"/>
							</g>
						</g>
						<path id="&lt;Path&gt;" class="s8" d="m292.5 210.9c2.7 1 5.9-0.2 8.4-1.2 3.1-1.2 6-2.9 8.9-4.6 0.8-0.5 0-1.8-0.8-1.3-2.4 1.5-4.9 2.9-7.5 4.1-2.5 1.1-5.9 2.6-8.6 1.6-0.9-0.3-1.2 1.1-0.4 1.4z"/>
						<path id="&lt;Path&gt;" class="s8" d="m294.7 216.8c3.1-1.4 6.6-2.1 9.8-3.5 0.8-0.3 0.5-1.7-0.4-1.4-3.3 1.4-6.9 2.2-10.2 3.6-0.8 0.4-0.1 1.7 0.8 1.3z"/>
						<path id="&lt;Path&gt;" class="s8" d="m294.1 218.7c3.8 1.6 8.2-0.7 11.7-2.1 0.8-0.3 0.5-1.7-0.4-1.4-3.2 1.3-7.4 3.5-10.9 2.1-0.8-0.4-1.2 1-0.4 1.4z"/>
						<path id="&lt;Path&gt;" class="s8" d="m292.6 226c5.8-3.4 12.4-5.1 18.6-7.6 0.9-0.4 0.5-1.8-0.3-1.5-6.4 2.6-13.1 4.4-19.1 7.8-0.8 0.5-0.1 1.8 0.8 1.3z"/>
						<path id="&lt;Path&gt;" class="s8" d="m296.6 230c4-1.6 8.1-3.2 12-5.1 0.9-0.4 0.1-1.6-0.7-1.2-3.8 1.8-7.8 3.3-11.7 4.8-0.9 0.4-0.5 1.8 0.4 1.5z"/>
						<path id="&lt;Path&gt;" class="s8" d="m298.1 232.5c1.4 0.6 3.5-0.6 4.7-1.1 2.3-1.1 4.5-2.2 6.6-3.5 0.8-0.5 0.1-1.7-0.7-1.3q-2.6 1.6-5.3 2.9-1.4 0.7-2.9 1.3c-0.3 0.1-1.4 0.6-1.7 0.4-0.8-0.3-1.6 0.9-0.7 1.3z"/>
					</g>
					<g id="&lt;Group&gt;">
						<g id="&lt;Group&gt;">
							<g id="&lt;Group&gt;">
								<path id="&lt;Path&gt;" class="s8" d="m434.6 166.5c-1.2-12.8-1.9-25.8-1.5-39.1-9.5 7.1-36.1 1.4-36.1 1.4 2.4 14 3.6 31.3 0.1 44.7 12.3-1 25.4-3.9 37.5-7z"/>
							</g>
							<g id="&lt;Group&gt;">
								<path id="&lt;Path&gt;" class="s9" d="m436.4 162.9c-1.2-12.7-1.9-25.7-1.6-39-9.5 7.1-36.1 1.4-36.1 1.4 2.4 13.9 3.7 31.3 0.1 44.7 12.3-1 25.5-3.9 37.6-7.1z"/>
							</g>
						</g>
						<path id="&lt;Path&gt;" class="s8" d="m409.9 137.9c2.4 1.7 5.8 1.4 8.5 1 3.3-0.4 6.5-1.3 9.7-2.2 0.9-0.3 0.5-1.7-0.4-1.4-2.8 0.8-5.5 1.5-8.3 2-2.7 0.4-6.4 1-8.7-0.6-0.8-0.6-1.5 0.7-0.8 1.2z"/>
						<path id="&lt;Path&gt;" class="s8" d="m410.5 144.2c3.4-0.6 6.9-0.4 10.3-0.9 1-0.1 1-1.6 0-1.5-3.5 0.5-7.1 0.4-10.7 0.9-0.9 0.2-0.5 1.6 0.4 1.5z"/>
						<path id="&lt;Path&gt;" class="s8" d="m409.5 145.8c3.2 2.5 8.1 1.4 11.8 1 0.9-0.1 0.9-1.6 0-1.4-3.5 0.3-8.1 1.5-11.1-0.8-0.7-0.6-1.4 0.7-0.7 1.2z"/>
						<path id="&lt;Path&gt;" class="s8" d="m406.1 152.5c6.5-1.8 13.4-1.7 20-2.6 0.9-0.1 1-1.6 0-1.5-6.8 0.9-13.7 0.8-20.4 2.7-0.9 0.2-0.5 1.7 0.4 1.4z"/>
						<path id="&lt;Path&gt;" class="s8" d="m409 157.4c4.3-0.5 8.6-1 12.9-1.8 0.9-0.2 0.6-1.6-0.4-1.4-4.1 0.8-8.3 1.2-12.5 1.7-0.9 0.1-0.9 1.6 0 1.5z"/>
						<path id="&lt;Path&gt;" class="s8" d="m409.8 160.2c1.2 1 3.5 0.3 4.9 0.1 2.4-0.4 4.8-1 7.2-1.7 0.9-0.2 0.5-1.6-0.4-1.4q-2.9 0.8-5.8 1.4-1.5 0.4-3.1 0.5c-0.4 0.1-1.5 0.3-1.8 0.1-0.7-0.6-1.8 0.4-1 1z"/>
					</g>
					<g id="&lt;Group&gt;">
						<g id="&lt;Group&gt;">
							<g id="&lt;Group&gt;">
								<path id="&lt;Path&gt;" class="s5" d="m817.2 240.3c2-12.7 4.6-25.5 8.2-38.3-11 4.6-35.3-7.5-35.3-7.5-1.2 14.1-4.3 31.3-11 43.3 12.2 2.1 25.6 2.6 38.1 2.5z"/>
							</g>
							<g id="&lt;Group&gt;">
								<path id="&lt;Path&gt;" class="s6" d="m819.8 237.3c2-12.7 4.5-25.4 8.1-38.2-14.4-3.4-35.3-7.5-35.3-7.5-1.1 14-4.2 31.2-10.9 43.2 12.1 2.1 25.6 2.6 38.1 2.5z"/>
							</g>
						</g>
						<g id="&lt;Group&gt;">
							<path id="&lt;Path&gt;" class="s5" d="m800.4 206.6c1.8 2.1 5.2 2.7 7.9 3 3.3 0.4 6.6 0.4 9.9 0.2 1 0 1-1.5 0-1.4-2.8 0.1-5.7 0.1-8.6-0.1-2.6-0.3-6.3-0.6-8.2-2.8-0.6-0.7-1.7 0.3-1 1.1z"/>
						</g>
						<g id="&lt;Group&gt;">
							<path id="&lt;Path&gt;" class="s5" d="m799.4 212.7c3.4 0.4 6.8 1.4 10.2 1.8 0.9 0.1 1.3-1.4 0.4-1.5-3.6-0.4-7.1-1.4-10.7-1.7-0.9-0.1-0.9 1.3 0.1 1.4z"/>
						</g>
						<g id="&lt;Group&gt;">
							<path id="&lt;Path&gt;" class="s5" d="m798 214.1c2.5 3.2 7.4 3.4 11.2 3.9 0.9 0.1 1.3-1.3 0.3-1.5-3.4-0.4-8.2-0.5-10.5-3.4-0.6-0.8-1.6 0.3-1 1z"/>
						</g>
						<g id="&lt;Group&gt;">
							<path id="&lt;Path&gt;" class="s5" d="m793 219.7c6.8-0.1 13.4 1.6 20.1 2.4 0.9 0.2 1.3-1.3 0.3-1.4-6.8-0.8-13.5-2.6-20.4-2.4-0.9 0-0.9 1.4 0 1.4z"/>
						</g>
						<g id="&lt;Group&gt;">
							<path id="&lt;Path&gt;" class="s5" d="m794.6 225.1c4.3 0.6 8.7 1.3 13 1.5 0.9 0.1 0.9-1.4 0-1.5-4.2-0.2-8.4-0.8-12.6-1.4-0.9-0.1-1.3 1.3-0.4 1.4z"/>
						</g>
						<g id="&lt;Group&gt;">
							<path id="&lt;Path&gt;" class="s5" d="m794.7 228.1c1 1.3 3.3 1.2 4.7 1.3 2.5 0.2 5 0.3 7.4 0.2 1 0 1-1.5 0-1.5q-3 0.1-6-0.1-1.6 0-3.1-0.2c-0.4-0.1-1.6-0.2-1.7-0.4-0.6-0.8-1.9 0-1.3 0.7z"/>
						</g>
					</g>
					<g id="&lt;Group&gt;">
						<g id="&lt;Group&gt;" style="opacity: .6;mix-blend-mode: multiply">
							<g id="&lt;Group&gt;">
								<path id="&lt;Path&gt;" class="s5" d="m530.3 253.3q0 0 0-0.1 0 0-0.1 0-0.4 0.5 0.1 0.1z"/>
								<path id="&lt;Path&gt;" class="s5" d="m627.6 175c1.8-21.8 2-43.6 2.7-65.4-3.8-0.5-7.7-0.8-11.6-1q-0.2-0.1-0.3-0.1-0.3 0-0.6 0c-9.8-0.5-19.7-0.2-29.3-0.1-11.4 0.2-23.8-0.3-35.3 0.7l-14.9-0.3q-0.3-0.1-0.6-0.1-0.6-0.1-1.1 0.1l-11.1-0.3c7.4 20.8 6.7 50.3 7.8 72.3 1.2 23.6 1.3 49-3 72.4 13.9-2.6 31.3 4.6 46.1 4.1 13.7-0.4 28.7-2.8 41.5-5.3 0.4-11.2 4.6-22.6 6.2-33.8 2-14.2 2.4-28.9 3.5-43.2z"/>
							</g>
						</g>
						<g id="&lt;Group&gt;">
							<g id="&lt;Group&gt;">
								<g id="&lt;Group&gt;">
									<path id="&lt;Path&gt;" class="s10" d="m541.3 246.5q0 0 0-0.1 0 0.1 0 0.1-0.5 0.5 0 0z"/>
									<path id="&lt;Path&gt;" class="s10" d="m632 160.6c0-21.9-1.6-43.7-2.7-65.4-13.7-0.7-28.1 0.9-41.7 2.2-11.4 1.1-23.8 1.6-35.2 3.5l-27.6 1.7c9.1 20.1 10.7 49.5 13.6 71.4 3.1 23.4 5.3 48.8 2.9 72.4 13.7-3.7 31.6 2.1 46.3 0.4 13.6-1.5 28.3-5.2 40.9-8.7-0.5-11.2 2.8-22.9 3.5-34.2 0.8-14.3 0-28.9 0-43.3z"/>
								</g>
								<g id="&lt;Group&gt;">
									<path id="&lt;Path&gt;" class="s11" d="m555.6 133.8c3.8 1.1 8-0.2 11.6-1.3 4.7-1.5 9.3-3.5 14.1-5 11.6-3.5 23.6-6 35.8-5.4 1.3 0 1.3-2.1 0-2.1-11.6-0.5-23 1.7-34.1 4.9-4.8 1.3-9.4 3-14 4.7-3.8 1.4-8.8 3.4-12.9 2.2-1.3-0.3-1.8 1.7-0.5 2z"/>
									<path id="&lt;Path&gt;" class="s11" d="m555.7 144.8c18.8-10.8 40.6-17.4 62-19.8 1.4-0.1 1.4-2.2 0-2.1-21.8 2.5-44 9.1-63 20.1-1.2 0.7-0.1 2.5 1 1.8z"/>
									<path id="&lt;Path&gt;" class="s11" d="m550.5 150.7c17.8-8 37.8-8.3 56.3-13.9 1.3-0.4 0.8-2.4-0.5-2-18.8 5.7-38.9 6-56.9 14.1-1.2 0.6-0.2 2.4 1.1 1.8z"/>
									<path id="&lt;Path&gt;" class="s11" d="m559.4 153c16.5-2.2 33-4.4 49.4-7.4 1.3-0.2 0.8-2.2-0.6-2-16.3 3-32.8 5.2-49.3 7.4-1.4 0.2-0.8 2.2 0.5 2z"/>
									<path id="&lt;Path&gt;" class="s11" d="m558.2 163.4c2.7 0.6 5.6 0.2 8.2-0.2 4.2-0.7 8.4-1.9 12.5-3.1 8.1-2.4 16.2-5.5 24.6-7.1 1.4-0.2 0.8-2.2-0.5-2-7.9 1.5-15.4 4.3-23.1 6.6-4 1.2-8.1 2.4-12.2 3.2-2.8 0.6-6.1 1.3-8.9 0.5-1.3-0.3-1.9 1.7-0.6 2.1z"/>
									<path id="&lt;Path&gt;" class="s11" d="m562.4 171.5c10.9 0.8 22.2-2.1 32.6-5.2 1.3-0.4 0.7-2.4-0.6-2-10.2 3-21.2 5.9-32 5.1-1.3-0.1-1.3 2 0 2.1z"/>
									<path id="&lt;Path&gt;" class="s11" d="m568.3 179.3c3.6 3.8 11.3 1.6 15.6 0.6 5.9-1.5 11.8-3.6 17.3-6.3 1.2-0.6 0.1-2.4-1.1-1.8-4.9 2.4-10.1 4.2-15.3 5.7-3 0.8-6 1.5-9 1.7-2 0.1-4.6 0.2-6-1.4-1-0.9-2.5 0.5-1.5 1.5z"/>
									<path id="&lt;Path&gt;" class="s11" d="m579.9 190.6c5.2 1.6 10.7 1 15.9 0.2 6.2-0.8 12.4-2.3 18.7-2.3 1.3 0 1.3-2.1 0-2.1-5.6 0-11.1 1.2-16.6 2-5.7 0.9-11.8 1.9-17.4 0.2-1.3-0.4-1.9 1.7-0.6 2z"/>
									<path id="&lt;Path&gt;" class="s11" d="m557.4 205.4c18.3-5.4 37.9-2.7 56-8.8 1.3-0.5 0.7-2.5-0.5-2.1-18.1 6.1-37.8 3.5-56 8.9-1.3 0.4-0.8 2.4 0.5 2z"/>
									<path id="&lt;Path&gt;" class="s11" d="m565.7 218.7c14.6-1 27.6-9.4 42.2-10.3 1.3-0.1 1.3-2.2 0-2.1-7.3 0.4-14.3 2.6-21.1 4.9-6.9 2.2-13.8 4.9-21.1 5.4-1.3 0.1-1.3 2.2 0 2.1z"/>
									<path id="&lt;Path&gt;" class="s11" d="m571.6 220.6c-0.9 0.8-1.9 0.8-2.3 2-0.2 0.5 0.4 1.4 1 1.3 10.6-1.4 21.5-0.2 31.9-3 1.3-0.4 0.8-2.4-0.5-2-10.3 2.7-20.9 1.5-31.4 2.9q0.5 0.7 1 1.3c0.1-0.1 1.5-0.8 1.8-1 1-0.9-0.5-2.3-1.5-1.5z"/>
									<path id="&lt;Path&gt;" class="s11" d="m587.2 226.8c4.3 1.7 9.4 0 13.7-0.7 1.3-0.3 0.8-2.3-0.6-2.1-3.9 0.7-8.6 2.3-12.6 0.8-1.2-0.5-1.8 1.5-0.5 2z"/>
								</g>
							</g>
							<path id="&lt;Path&gt;" class="s12" d="m540.7 105.6c0 2-1.7 3.7-3.8 3.7-2 0-3.7-1.7-3.7-3.7 0-2.1 1.7-3.8 3.7-3.8 2.1 0 3.8 1.7 3.8 3.8z"/>
							<path id="&lt;Path&gt;" class="s13" d="m621.1 98.9c0 2-1.7 3.7-3.8 3.7-2.1 0-3.7-1.7-3.7-3.7 0-2.1 1.6-3.8 3.7-3.8 2.1 0 3.8 1.7 3.8 3.8z"/>
						</g>
					</g>
					<g id="&lt;Group&gt;">
						<g id="&lt;Group&gt;">
							<g id="&lt;Group&gt;">
								<path id="&lt;Path&gt;" class="s8" d="m714.3 240.6c-1.2-12.8-1.9-25.8-1.6-39.1-9.4 7.1-36 1.4-36 1.4 2.4 13.9 3.6 31.3 0.1 44.7 12.3-1 25.4-3.9 37.5-7z"/>
							</g>
							<g id="&lt;Group&gt;">
								<path id="&lt;Path&gt;" class="s9" d="m716.1 237c-1.3-12.7-1.9-25.7-1.6-39-9.5 7.1-36.1 1.4-36.1 1.4 2.4 13.9 3.6 31.3 0.1 44.7 12.3-1 25.5-3.9 37.6-7.1z"/>
							</g>
						</g>
						<path id="&lt;Path&gt;" class="s8" d="m689.6 212c2.4 1.7 5.8 1.4 8.5 1 3.2-0.4 6.5-1.3 9.7-2.2 0.9-0.3 0.5-1.7-0.4-1.4-2.8 0.8-5.5 1.5-8.4 2-2.6 0.4-6.3 1-8.6-0.6-0.8-0.6-1.5 0.7-0.8 1.2z"/>
						<path id="&lt;Path&gt;" class="s8" d="m690.2 218.3c3.4-0.6 6.9-0.4 10.3-0.9 1-0.1 1-1.6 0-1.5-3.5 0.5-7.1 0.4-10.7 0.9-0.9 0.2-0.5 1.6 0.4 1.5z"/>
						<path id="&lt;Path&gt;" class="s8" d="m689.2 219.9c3.2 2.5 8 1.4 11.8 1 0.9-0.1 0.9-1.6 0-1.4-3.5 0.3-8.1 1.5-11.1-0.8-0.7-0.6-1.5 0.7-0.7 1.2z"/>
						<path id="&lt;Path&gt;" class="s8" d="m685.8 226.6c6.5-1.8 13.3-1.7 20-2.6 0.9-0.1 0.9-1.6 0-1.5-6.8 0.9-13.8 0.8-20.4 2.7-0.9 0.2-0.5 1.7 0.4 1.4z"/>
						<path id="&lt;Path&gt;" class="s8" d="m688.7 231.5c4.3-0.5 8.6-1 12.9-1.8 0.9-0.2 0.5-1.6-0.4-1.4-4.1 0.8-8.3 1.2-12.5 1.7-1 0.1-1 1.6 0 1.5z"/>
						<path id="&lt;Path&gt;" class="s8" d="m689.5 234.3c1.2 1 3.5 0.3 4.9 0.1 2.4-0.4 4.8-1 7.2-1.7 0.9-0.2 0.5-1.6-0.4-1.4q-2.9 0.8-5.8 1.4-1.6 0.4-3.1 0.5c-0.4 0.1-1.6 0.3-1.8 0.1-0.7-0.6-1.8 0.4-1 1z"/>
					</g>
					<g id="&lt;Group&gt;">
						<g id="&lt;Group&gt;">
							<g id="&lt;Group&gt;">
								<path id="&lt;Path&gt;" class="s8" d="m238.8 321.3c-1.2-12.7-1.9-25.7-1.5-39-9.5 7.1-36.1 1.4-36.1 1.4 2.4 13.9 3.6 31.3 0.1 44.7 12.3-1 25.4-3.9 37.5-7.1z"/>
							</g>
							<g id="&lt;Group&gt;">
								<path id="&lt;Path&gt;" class="s9" d="m240.6 317.8c-1.2-12.7-1.9-25.8-1.6-39-9.4 7.1-36.1 1.4-36.1 1.4 2.5 13.9 3.7 31.3 0.2 44.7 12.2-1 25.4-3.9 37.5-7.1z"/>
							</g>
						</g>
						<path id="&lt;Path&gt;" class="s8" d="m214.1 292.8c2.4 1.7 5.8 1.3 8.5 1 3.3-0.4 6.5-1.3 9.7-2.2 0.9-0.3 0.5-1.7-0.4-1.4-2.8 0.8-5.5 1.5-8.3 2-2.7 0.4-6.4 1-8.7-0.6-0.8-0.6-1.5 0.7-0.8 1.2z"/>
						<path id="&lt;Path&gt;" class="s8" d="m214.7 299c3.4-0.5 6.9-0.3 10.4-0.8 0.9-0.1 0.9-1.6 0-1.5-3.6 0.5-7.2 0.4-10.8 0.9-0.9 0.2-0.5 1.6 0.4 1.4z"/>
						<path id="&lt;Path&gt;" class="s8" d="m213.7 300.7c3.3 2.5 8.1 1.4 11.8 1 0.9-0.1 0.9-1.6 0-1.5-3.5 0.4-8.1 1.6-11.1-0.7-0.7-0.6-1.4 0.7-0.7 1.2z"/>
						<path id="&lt;Path&gt;" class="s8" d="m210.3 307.4c6.5-1.8 13.4-1.8 20-2.6 0.9-0.1 1-1.6 0-1.5-6.8 0.9-13.7 0.8-20.4 2.7-0.9 0.2-0.5 1.6 0.4 1.4z"/>
						<path id="&lt;Path&gt;" class="s8" d="m213.2 312.2c4.3-0.4 8.6-0.9 12.9-1.7 1-0.2 0.6-1.6-0.4-1.4-4.1 0.8-8.3 1.2-12.5 1.7-0.9 0.1-0.9 1.6 0 1.4z"/>
						<path id="&lt;Path&gt;" class="s8" d="m214 315.1c1.2 1 3.5 0.3 4.9 0.1 2.4-0.4 4.8-1 7.2-1.7 0.9-0.2 0.5-1.6-0.4-1.4q-2.8 0.8-5.8 1.4-1.5 0.4-3.1 0.5c-0.4 0.1-1.5 0.2-1.8 0.1-0.7-0.6-1.7 0.4-1 1z"/>
					</g>
				</g>
				<g id="&lt;Group&gt;">
					<g id="&lt;Group&gt;">
						<g id="&lt;Group&gt;">
							<path id="&lt;Path&gt;" class="s14" d="m568 460.4c0.5 6-4 10.8-10 10.8h-33.6c-6 0-10.2-4.8-9.5-10.8l8.6-68c0.7-6 4.6-10.8 8.7-10.8h23c4.1 0 7.7 4.8 8.1 10.8z"/>
							<path id="&lt;Path&gt;" class="s15" d="m558.9 458.6c0.3 4.6-3.3 8.4-8 8.4h-26.9c-4.8 0-8.1-3.8-7.5-8.4l6.8-53.3c0.6-4.6 3.7-8.4 6.9-8.4h18.4c3.3 0 6.2 3.8 6.5 8.4z"/>
							<g id="&lt;Group&gt;">
								<path id="&lt;Compound Path&gt;" fill-rule="evenodd" class="s14" d="m538.4 462.4c-9.8 0-17.8-8-17.8-17.8 0-9.8 8-17.7 17.8-17.7 9.7 0 17.7 7.9 17.7 17.7 0 9.8-8 17.8-17.7 17.8zm0-34.2c-9.1 0-16.5 7.4-16.5 16.4 0 9.1 7.4 16.5 16.5 16.5 9 0 16.4-7.4 16.4-16.5 0-9-7.4-16.4-16.4-16.4z"/>
								<path id="&lt;Path&gt;" class="s14" d="m538.4 431c-7.6 0-13.7 6.1-13.7 13.6 0 7.5 6.1 13.6 13.7 13.6 7.5 0 13.6-6.1 13.6-13.6 0-7.5-6.1-13.6-13.6-13.6z"/>
							</g>
							<g id="&lt;Group&gt;">
								<path id="&lt;Compound Path&gt;" fill-rule="evenodd" class="s14" d="m538.4 422.7c-5.6 0-10.1-4.5-10.1-10 0-5.6 4.5-10.1 10.1-10.1 5.5 0 10 4.5 10 10.1 0 5.5-4.5 10-10 10zm0-19.3c-5.2 0-9.3 4.1-9.3 9.3 0 5.1 4.1 9.3 9.3 9.3 5.1 0 9.2-4.2 9.2-9.3 0-5.2-4.1-9.3-9.2-9.3z"/>
								<path id="&lt;Path&gt;" class="s14" d="m538.4 405c-4.3 0-7.7 3.4-7.7 7.7 0 4.2 3.4 7.7 7.7 7.7 4.2 0 7.7-3.5 7.7-7.7 0-4.3-3.5-7.7-7.7-7.7z"/>
							</g>
						</g>
						<g id="&lt;Group&gt;">
							<g id="&lt;Group&gt;">
								<g id="&lt;Group&gt;">
									<g id="&lt;Group&gt;">
										<path id="&lt;Path&gt;" class="s16" d="m1004.2 489.8v326.4h28.6v-326.4z"/>
									</g>
									<path id="&lt;Path&gt;" class="s17" d="m1032.8 816.2h-28.6v-11.4h28.6z"/>
								</g>
								<g id="&lt;Group&gt;">
									<path id="&lt;Path&gt;" class="s18" d="m1015.3 770.5c0 2.1-1.3 3.7-2.9 3.7-1.6 0-2.9-1.6-2.9-3.7v-263c0-2.1 1.3-3.7 2.9-3.7 1.6 0 2.9 1.6 2.9 3.7z"/>
								</g>
							</g>
							<g id="&lt;Group&gt;">
								<g id="&lt;Group&gt;">
									<g id="&lt;Group&gt;">
										<path id="&lt;Path&gt;" class="s16" d="m800.3 489.8v326.4h28.6v-326.4z"/>
									</g>
									<path id="&lt;Path&gt;" class="s17" d="m828.9 816.2h-28.6v-11.4h28.6z"/>
								</g>
								<g id="&lt;Group&gt;">
									<path id="&lt;Path&gt;" class="s18" d="m811.5 770.5c0 2.1-1.3 3.7-2.9 3.7-1.7 0-3-1.6-3-3.7v-263c0-2.1 1.3-3.7 3-3.7 1.6 0 2.9 1.6 2.9 3.7z"/>
								</g>
							</g>
							<g id="&lt;Group&gt;">
								<g id="&lt;Group&gt;">
									<g id="&lt;Group&gt;">
										<path id="&lt;Path&gt;" class="s16" d="m473.3 489.8v326.4h28.6v-326.4z"/>
									</g>
									<path id="&lt;Path&gt;" class="s17" d="m501.9 816.2h-28.6v-11.4h28.6z"/>
								</g>
								<g id="&lt;Group&gt;">
									<path id="&lt;Path&gt;" class="s18" d="m484.4 770.5c0 2.1-1.3 3.7-2.9 3.7-1.6 0-2.9-1.6-2.9-3.7v-263c0-2.1 1.3-3.7 2.9-3.7 1.6 0 2.9 1.6 2.9 3.7z"/>
								</g>
							</g>
							<g id="&lt;Group&gt;">
								<g id="&lt;Group&gt;">
									<g id="&lt;Group&gt;">
										<path id="&lt;Path&gt;" class="s16" d="m270.2 489.8v326.4h28.6v-326.4z"/>
									</g>
									<path id="&lt;Path&gt;" class="s17" d="m298.8 816.2h-28.6v-11.4h28.6z"/>
								</g>
								<g id="&lt;Group&gt;">
									<path id="&lt;Path&gt;" class="s18" d="m281.4 770.5c0 2.1-1.3 3.7-2.9 3.7-1.6 0-2.9-1.6-2.9-3.7v-263c0-2.1 1.3-3.7 2.9-3.7 1.6 0 2.9 1.6 2.9 3.7z"/>
								</g>
							</g>
							<g id="&lt;Group&gt;">
								<g id="&lt;Group&gt;">
									<path id="&lt;Path&gt;" class="s19" d="m1034.3 508.3h-765.3v-25.1h765.3z"/>
								</g>
								<g id="&lt;Group&gt;">
									<g id="&lt;Group&gt;">
										<path id="&lt;Path&gt;" class="s20" d="m1056.1 472.3v16.8h-810.5v-16.8z"/>
									</g>
									<g id="&lt;Group&gt;">
										<path id="&lt;Path&gt;" class="s21" d="m1056.1 472.3v16.8h-222.6v-16.8z"/>
									</g>
								</g>
							</g>
						</g>
						<g id="&lt;Group&gt;">
							<path id="&lt;Path&gt;" class="s22" d="m333.2 430q-0.7-0.1-1.5-0.2 1.2 0.1 1.5 0.2z"/>
						</g>
						<g id="&lt;Group&gt;">
							<path id="&lt;Path&gt;" class="s23" d="m334 576.1c-17.1 2.5 5.6 10.4-9.3 15.8l75.6 11.6c38.6-2.3 149 4.5 166.8 0 6.3-1.6 39.2-0.8 41.9-4.6-20.6-33.3-249.3-26.5-275-22.8z"/>
						</g>
						<g id="&lt;Group&gt;">
							<g id="&lt;Group&gt;">
								<g id="&lt;Group&gt;">
									<path id="&lt;Path&gt;" class="s14" d="m722.4 395v74.9h-35.9v-74.9z"/>
									<path id="&lt;Path&gt;" class="s24" d="m703.1 395v74.9h-16.6v-74.9z"/>
									<g id="&lt;Group&gt;">
										<path id="&lt;Path&gt;" class="s25" d="m786.4 467.2c0 2.6-2.1 4.7-4.7 4.7h-154.5c-2.6 0-4.7-2.1-4.7-4.7 0-1.2 0.5-2.4 1.4-3.3 0.8-0.8 2-1.3 3.3-1.3h154.5c2.6 0 4.7 2.1 4.7 4.6z"/>
										<path id="&lt;Path&gt;" class="s14" d="m786.4 467.2c0 2.6-1.5 4.7-3.3 4.7h-55.8c-1.8 0-3.3-2.1-3.3-4.7 0-1.2 0.4-2.4 1-3.3 0.6-0.8 1.4-1.3 2.3-1.3h55.8c1.8 0 3.3 2.1 3.3 4.6z"/>
									</g>
									<g id="&lt;Group&gt;">
										<path id="&lt;Path&gt;" class="s14" d="m837.3 264.1v142c0 8.1-5.5 15-12.7 16.4q-1.4 0.3-2.9 0.3h-249.7q-1.5 0-2.9-0.3c-7.2-1.4-12.7-8.3-12.7-16.4v-142c0-9.2 7-16.6 15.6-16.6h249.7c8.6 0 15.6 7.4 15.6 16.6z"/>
										<path id="&lt;Path&gt;" class="s26" d="m818.7 270.1v130.1c0 8.4-6.3 15.3-14.1 15.3h-225.9c-7.8 0-14.1-6.9-14.1-15.3v-130.1c0-8.5 6.3-15.3 14.1-15.3h225.9c7.8 0 14.1 6.8 14.1 15.3z"/>
										<g id="&lt;Group&gt;">
											<path id="&lt;Path&gt;" class="s18" d="m819.4 385.4v21.1c0 8.4-5.1 15.3-11.9 16.8h-239.9c-6.8-1.5-12-8.4-12-16.8v-21.1z"/>
										</g>
									</g>
									<path id="&lt;Path&gt;" class="s24" d="m691.2 399c0 3.2-3.5 5.8-7.8 5.8-4.3 0-7.8-2.6-7.8-5.8 0-3.3 3.5-5.9 7.8-5.9 4.3 0 7.8 2.6 7.8 5.9z"/>
								</g>
								<g id="&lt;Group&gt;">
									<g id="&lt;Group&gt;">
										<path id="&lt;Path&gt;" class="s27" d="m587.6 263h-13v1.3h13z"/>
										<path id="&lt;Path&gt;" class="s27" d="m661.4 263h-17.5v1.3h17.5z"/>
										<path id="&lt;Path&gt;" class="s27" d="m665.1 263v1.3h57.2v-1.3z"/>
										<path id="&lt;Path&gt;" class="s27" d="m761.6 264.3v-1.3h-35.6v1.3h12.9v-0.9h4.2v0.9z"/>
										<path id="&lt;Path&gt;" class="s27" d="m772.2 263v1.3h14.3v-1.3z"/>
										<path id="&lt;Path&gt;" class="s27" d="m587.6 269.4h-13v1.4h13z"/>
										<path id="&lt;Path&gt;" class="s27" d="m722.3 269.4h-14.7v1.4h14.7z"/>
										<path id="&lt;Path&gt;" class="s27" d="m738.9 269.4h-12.9v1.4h12.9z"/>
										<path id="&lt;Path&gt;" class="s27" d="m772.2 269.4v1.4h14.3v-1.4z"/>
										<path id="&lt;Path&gt;" class="s27" d="m761.6 269.4h-18.5v1.4h18.5z"/>
										<path id="&lt;Path&gt;" class="s27" d="m661.4 269.4h-17.5v1.4h17.5z"/>
										<path id="&lt;Path&gt;" class="s27" d="m665.1 269.4v1.4h35.5v-1.4z"/>
										<path id="&lt;Path&gt;" class="s27" d="m587.6 275.9h-13v1.4h13z"/>
										<path id="&lt;Path&gt;" class="s27" d="m700.6 275.9h-48v1.4h48z"/>
										<path id="&lt;Path&gt;" class="s27" d="m710.3 275.9h-2.7v1.4h2.7z"/>
										<path id="&lt;Path&gt;" class="s27" d="m720.9 275.9v1.4h18v-1.4z"/>
										<path id="&lt;Path&gt;" class="s27" d="m761.6 275.9h-18.5v1.4h18.5z"/>
										<path id="&lt;Path&gt;" class="s27" d="m772.2 275.9v1.4h14.3v-1.4z"/>
										<path id="&lt;Path&gt;" class="s27" d="m587.6 282.3h-13v1.4h13z"/>
										<path id="&lt;Path&gt;" class="s27" d="m700.6 282.3h-48v1.4h48z"/>
										<path id="&lt;Path&gt;" class="s27" d="m710.3 282.3h-2.7v1.4h2.7z"/>
										<path id="&lt;Path&gt;" class="s27" d="m720.9 282.3v1.4h40.7v-1.4z"/>
										<path id="&lt;Path&gt;" class="s27" d="m779.1 282.3v1.4h7.4v-1.4z"/>
										<path id="&lt;Path&gt;" class="s27" d="m777.3 282.3h-5.1v1.4h5.1z"/>
										<path id="&lt;Path&gt;" class="s27" d="m612 288.8h-37.4v1.4h37.4z"/>
										<path id="&lt;Path&gt;" class="s27" d="m664.2 288.8h-11.6v1.4h11.6z"/>
										<path id="&lt;Path&gt;" class="s27" d="m720.9 288.8v1.4h56.4v-1.4z"/>
										<path id="&lt;Path&gt;" class="s27" d="m779.1 288.8v1.4h7.4v-1.4z"/>
										<path id="&lt;Path&gt;" class="s27" d="m694.2 288.8h-14.3v1.4h14.3z"/>
										<path id="&lt;Path&gt;" class="s27" d="m642 296.2h-30v-0.9h-37.4v1.4h67.4z"/>
										<path id="&lt;Path&gt;" class="s27" d="m694.2 295.3h-14.3v1.4h14.3z"/>
										<path id="&lt;Path&gt;" class="s27" d="m720.9 295.3v0.9h-4.6v0.5h30v-1.4z"/>
										<path id="&lt;Path&gt;" class="s27" d="m747.7 295.3v1.4h29.6v-1.4z"/>
										<path id="&lt;Path&gt;" class="s27" d="m779.1 295.3v1.4h7.4v-1.4z"/>
										<path id="&lt;Path&gt;" class="s27" d="m664.2 295.3h-11.6v1.4h11.6z"/>
										<path id="&lt;Path&gt;" class="s28" d="m574.6 301.7v1.4h1.9v-0.5h4.1v0.5h83.6v-1.4z"/>
										<path id="&lt;Path&gt;" class="s28" d="m694.2 301.7h-14.3v1.4h14.3z"/>
										<path id="&lt;Path&gt;" class="s28" d="m746.3 301.7h-30v1.4h30z"/>
										<path id="&lt;Path&gt;" class="s28" d="m747.7 301.7v1.4h29.6v-1.4z"/>
										<path id="&lt;Path&gt;" class="s28" d="m779.1 301.7v1.4h7.4v-1.4z"/>
										<path id="&lt;Path&gt;" class="s28" d="m576.5 308.2h-1.9v1.4h1.9z"/>
										<path id="&lt;Path&gt;" class="s28" d="m580.6 308.2v1.4h83.6v-1.4z"/>
										<path id="&lt;Path&gt;" class="s28" d="m694.2 308.2h-14.3v1.4h14.3z"/>
										<path id="&lt;Path&gt;" class="s28" d="m746.3 308.2h-30v1.4h30z"/>
										<path id="&lt;Path&gt;" class="s28" d="m747.7 308.2v1.4h29.6v-1.4z"/>
										<path id="&lt;Path&gt;" class="s28" d="m779.1 308.2v1.4h7.4v-1.4z"/>
										<path id="&lt;Path&gt;" class="s28" d="m580.6 314.6v1.4h83.6v-1.4z"/>
										<path id="&lt;Path&gt;" class="s28" d="m691.9 314.6h-12v1.4h12z"/>
										<path id="&lt;Path&gt;" class="s28" d="m741.3 314.6h-25v1.4h25z"/>
										<path id="&lt;Path&gt;" class="s28" d="m764.8 314.6v1.4h21.7v-1.4z"/>
										<path id="&lt;Path&gt;" class="s28" d="m756.5 314.6h-4.6v1.4h4.6z"/>
										<path id="&lt;Path&gt;" class="s28" d="m741.3 321.1h-25v1.4h25z"/>
										<path id="&lt;Path&gt;" class="s28" d="m756.5 321.1h-4.6v1.4h4.6z"/>
										<path id="&lt;Path&gt;" class="s28" d="m764.8 321.1v1.4h5.5v-1.4z"/>
										<path id="&lt;Path&gt;" class="s28" d="m772.6 321.1v1.4h13.9v-1.4z"/>
										<path id="&lt;Path&gt;" class="s28" d="m691.9 321.1h-12v1.4h12z"/>
										<path id="&lt;Path&gt;" class="s28" d="m580.6 321.1v1.4h13.9v-1.4z"/>
										<path id="&lt;Path&gt;" class="s28" d="m595 321.1v1.4h69.2v-1.4z"/>
										<path id="&lt;Path&gt;" class="s28" d="m691.9 327.6h-12v1.4h12z"/>
										<path id="&lt;Path&gt;" class="s28" d="m741.3 327.6h-25v1.4h25z"/>
										<path id="&lt;Path&gt;" class="s28" d="m751.9 327.6v1.4h4.6v-1.4z"/>
										<path id="&lt;Path&gt;" class="s28" d="m764.8 327.6v1.4h5.5v-1.4z"/>
										<path id="&lt;Path&gt;" class="s28" d="m772.6 327.6v1.4h13.9v-1.4z"/>
										<path id="&lt;Path&gt;" class="s28" d="m595 327.6v1.4h69.2v-1.4z"/>
										<path id="&lt;Path&gt;" class="s28" d="m580.6 327.6v1.4h13.9v-1.4z"/>
										<path id="&lt;Path&gt;" class="s28" d="m580.6 334v1h-4.1v-1h-0.5v1.4h18.5v-1.4z"/>
										<path id="&lt;Path&gt;" class="s28" d="m595 334v1.4h96.9v-1.4z"/>
										<path id="&lt;Path&gt;" class="s28" d="m730.2 334h-13.9v1.4h13.9z"/>
										<path id="&lt;Path&gt;" class="s28" d="m731.6 334v1.4h38.7v-1.4z"/>
										<path id="&lt;Path&gt;" class="s28" d="m772.6 334v1.4h13.9v-1.4z"/>
										<path id="&lt;Path&gt;" class="s28" d="m624 340.5v1.4h67.9v-1.4z"/>
										<path id="&lt;Path&gt;" class="s28" d="m576 340.5v1.4h18.5v-1.4z"/>
										<path id="&lt;Path&gt;" class="s28" d="m595 340.5v1.4h23v-1.4z"/>
										<path id="&lt;Path&gt;" class="s28" d="m731.6 340.5v1.4h38.7v-1.4z"/>
										<path id="&lt;Path&gt;" class="s28" d="m730.2 340.5h-26.3v1.4h26.3z"/>
										<path id="&lt;Path&gt;" class="s28" d="m772.6 340.5v1.4h13.9v-1.4z"/>
										<path id="&lt;Path&gt;" class="s28" d="m584.8 347h-8.8v1.3h8.8z"/>
										<path id="&lt;Path&gt;" class="s28" d="m587.1 347v1.3h7.4v-1.3z"/>
										<path id="&lt;Path&gt;" class="s28" d="m595 347v1.3h23v-1.3z"/>
										<path id="&lt;Path&gt;" class="s28" d="m624 347v1.3h67.9v-1.3z"/>
										<path id="&lt;Path&gt;" class="s28" d="m730.2 347h-26.3v1.3h26.3z"/>
										<path id="&lt;Path&gt;" class="s28" d="m731.6 347v1.3h38.7v-1.3z"/>
										<path id="&lt;Path&gt;" class="s28" d="m772.6 347v1.3h13.9v-1.3z"/>
										<path id="&lt;Path&gt;" class="s28" d="m643.4 353.4v1.4h72.5v-1.4z"/>
										<path id="&lt;Path&gt;" class="s28" d="m584.8 353.4h-8.8v1.4h8.8z"/>
										<path id="&lt;Path&gt;" class="s28" d="m597.3 353.4h-10.2v1.4h10.2z"/>
										<path id="&lt;Path&gt;" class="s28" d="m601.9 353.4v1.4h16.1v-1.4z"/>
										<path id="&lt;Path&gt;" class="s28" d="m624 353.4v1.4h16.2v-1.4z"/>
										<path id="&lt;Path&gt;" class="s28" d="m718.6 353.4v1.4h11.6v-1.4z"/>
										<path id="&lt;Path&gt;" class="s28" d="m731.6 353.4v1.4h54.9v-1.4z"/>
										<path id="&lt;Path&gt;" class="s28" d="m718.6 359.9v1.4h11.6v-1.4z"/>
										<path id="&lt;Path&gt;" class="s28" d="m584.8 359.9h-10.2v1.4h10.2z"/>
										<path id="&lt;Path&gt;" class="s28" d="m601.9 359.9v1.4h16.1v-1.4z"/>
										<path id="&lt;Path&gt;" class="s28" d="m597.3 359.9h-10.2v1.4h10.2z"/>
										<path id="&lt;Path&gt;" class="s28" d="m624 359.9v1.4h16.2v-1.4z"/>
										<path id="&lt;Path&gt;" class="s28" d="m643.4 359.9v1.4h72.5v-1.4z"/>
										<path id="&lt;Path&gt;" class="s28" d="m731.6 359.9v1.4h54.9v-1.4z"/>
										<path id="&lt;Path&gt;" class="s28" d="m584.8 366.3h-10.2v1.4h10.2z"/>
										<path id="&lt;Path&gt;" class="s28" d="m615.7 366.3h-13.8v1.4h13.8z"/>
										<path id="&lt;Path&gt;" class="s28" d="m624.5 366.3v1.4h15.7v-1.4z"/>
										<path id="&lt;Path&gt;" class="s28" d="m597.3 366.3h-10.2v1.4h10.2z"/>
										<path id="&lt;Path&gt;" class="s28" d="m643.4 366.3v1.4h19.9v-1.4z"/>
										<path id="&lt;Path&gt;" class="s28" d="m666 366.3v1.4h18.5v-1.4z"/>
										<path id="&lt;Path&gt;" class="s28" d="m688.6 366.3v1.4h27.3v-1.4z"/>
										<path id="&lt;Path&gt;" class="s28" d="m718.6 366.3v1.4h67.9v-1.4z"/>
										<path id="&lt;Path&gt;" class="s28" d="m597.3 372.8h-22.7v1.4h22.7z"/>
										<path id="&lt;Path&gt;" class="s28" d="m615.7 372.8h-13.8v1.4h13.8z"/>
										<path id="&lt;Path&gt;" class="s28" d="m624.5 372.8v1.4h38.8v-1.4z"/>
										<path id="&lt;Path&gt;" class="s28" d="m666 372.8v1.4h18.5v-1.4z"/>
										<path id="&lt;Path&gt;" class="s28" d="m688.6 372.8v1.4h27.3v-1.4z"/>
										<path id="&lt;Path&gt;" class="s28" d="m718.6 372.8v1.4h67.9v-1.4z"/>
									</g>
								</g>
								<g id="&lt;Group&gt;">
									<g id="&lt;Group&gt;">
										<path id="&lt;Path&gt;" class="s29" d="m705.7 365.7h-123.1v-92.8h123.1z"/>
										<path id="&lt;Path&gt;" class="s15" d="m705.7 279.9h-123.1v-7h123.1z"/>
									</g>
									<g id="&lt;Group&gt;">
										<g id="&lt;Group&gt;">
											<path id="&lt;Path&gt;" class="s30" d="m699.2 276.3c0 1.3-1 2.4-2.4 2.4-1.3 0-2.4-1.1-2.4-2.4 0-1.3 1.1-2.4 2.4-2.4 1.4 0 2.4 1.1 2.4 2.4z"/>
										</g>
										<g id="&lt;Group&gt;">
											<path id="&lt;Path&gt;" class="s31" d="m687.7 276.3c0 1.3-1.1 2.4-2.5 2.4-1.3 0-2.4-1.1-2.4-2.4 0-1.3 1.1-2.4 2.4-2.4 1.4 0 2.5 1.1 2.5 2.4z"/>
										</g>
										<g id="&lt;Group&gt;">
											<path id="&lt;Path&gt;" class="s10" d="m676.7 276.3c0 1.3-1.1 2.4-2.4 2.4-1.3 0-2.4-1.1-2.4-2.4 0-1.3 1.1-2.4 2.4-2.4 1.3 0 2.4 1.1 2.4 2.4z"/>
										</g>
									</g>
									<g id="&lt;Group&gt;">
										<g id="&lt;Group&gt;">
											<path id="&lt;Path&gt;" class="s31" d="m595.8 288.9h-4.8v1.4h4.8z"/>
										</g>
										<g id="&lt;Group&gt;">
											<path id="&lt;Path&gt;" class="s31" d="m612 288.9v1.4h67.6v-1.4z"/>
										</g>
										<g id="&lt;Group&gt;">
											<path id="&lt;Path&gt;" class="s31" d="m595.8 294.4h-4.8v1.4h4.8z"/>
										</g>
										<g id="&lt;Group&gt;">
											<path id="&lt;Path&gt;" class="s31" d="m612 294.4v1.4h51.4v-1h11v1h0.7v-1.4z"/>
										</g>
										<g id="&lt;Group&gt;">
											<path id="&lt;Path&gt;" class="s31" d="m595.8 299.9h-4.8v1.4h4.8z"/>
										</g>
										<g id="&lt;Group&gt;">
											<path id="&lt;Path&gt;" class="s31" d="m612 299.9v1.4h45.2v-1.4z"/>
										</g>
										<g id="&lt;Group&gt;">
											<path id="&lt;Path&gt;" class="s31" d="m675.1 300.6v-0.7h-0.7v1.4h5.2v-0.7z"/>
										</g>
										<g id="&lt;Group&gt;">
											<path id="&lt;Path&gt;" class="s31" d="m612 305.5v0.6h-16.2v-0.6h-4.8v1.3h38.9v-1.3z"/>
										</g>
										<g id="&lt;Group&gt;">
											<path id="&lt;Path&gt;" class="s31" d="m648.5 305.5v1.3h8.7v-1.3z"/>
										</g>
										<g id="&lt;Group&gt;">
											<path id="&lt;Path&gt;" class="s31" d="m679.9 305.5h-6.5v1.3h6.5z"/>
										</g>
										<g id="&lt;Group&gt;">
											<path id="&lt;Path&gt;" class="s31" d="m612 311h-21v1.3h21z"/>
										</g>
										<g id="&lt;Group&gt;">
											<path id="&lt;Path&gt;" class="s31" d="m682.7 311h-34.2v1.3h34.2z"/>
										</g>
										<g id="&lt;Group&gt;">
											<path id="&lt;Path&gt;" class="s31" d="m612 316.5h-21v1.4h21z"/>
										</g>
										<g id="&lt;Group&gt;">
											<path id="&lt;Path&gt;" class="s31" d="m682.7 316.5h-34.2v1h-18.6v-1h-1.4v1.4h15.6 11.7 1.7v-1.1h7.2v1.1h4.2v-0.7h13.8z"/>
										</g>
										<g id="&lt;Group&gt;">
											<path id="&lt;Path&gt;" class="s31" d="m644.1 322h-15.6v0.3h-16.5v-0.3h-21v1.4h53.1z"/>
										</g>
										<g id="&lt;Group&gt;">
											<path id="&lt;Path&gt;" class="s31" d="m657.5 322h-1.7v1.4h1.7z"/>
										</g>
										<g id="&lt;Group&gt;">
											<path id="&lt;Path&gt;" class="s31" d="m668.9 322h-4.2v1.4h4.2z"/>
										</g>
										<g id="&lt;Group&gt;">
											<path id="&lt;Path&gt;" class="s30" d="m613 340.6h-21v1.4h21z"/>
										</g>
										<g id="&lt;Group&gt;">
											<path id="&lt;Path&gt;" class="s30" d="m635.4 340.6h-4.1v1.4h4.1z"/>
										</g>
										<g id="&lt;Group&gt;">
											<path id="&lt;Path&gt;" class="s30" d="m664.4 340.6h-18.3v1.4h18.3z"/>
										</g>
										<g id="&lt;Group&gt;">
											<path id="&lt;Path&gt;" class="s30" d="m613 347.2h-21.3v1.3h21.3z"/>
										</g>
										<g id="&lt;Group&gt;">
											<path id="&lt;Path&gt;" class="s30" d="m635.4 347.2h-4.1v1.3h4.1z"/>
										</g>
										<g id="&lt;Group&gt;">
											<path id="&lt;Path&gt;" class="s30" d="m648.5 347.2h-2.4v1.3h2.4z"/>
										</g>
										<g id="&lt;Group&gt;">
											<path id="&lt;Path&gt;" class="s30" d="m664.4 347.2h-6.6v1.3h6.6z"/>
										</g>
										<g id="&lt;Group&gt;">
											<path id="&lt;Path&gt;" class="s30" d="m613 353.7h-21.7v1.4h21.7z"/>
										</g>
										<g id="&lt;Group&gt;">
											<path id="&lt;Path&gt;" class="s30" d="m662.7 353.7h-31.4v1.4h31.4z"/>
										</g>
									</g>
								</g>
								<g id="&lt;Group&gt;">
									<g id="&lt;Group&gt;">
										<path id="&lt;Path&gt;" class="s29" d="m805.7 377.3h-90.8v-68.4h90.8z"/>
										<path id="&lt;Path&gt;" class="s15" d="m805.7 314h-90.8v-5.1h90.8z"/>
									</g>
									<g id="&lt;Group&gt;">
										<g id="&lt;Group&gt;">
											<path id="&lt;Path&gt;" class="s30" d="m801 311.4c0 1-0.8 1.8-1.8 1.8-1 0-1.8-0.8-1.8-1.8 0-1 0.8-1.8 1.8-1.8 1 0 1.8 0.8 1.8 1.8z"/>
										</g>
										<g id="&lt;Group&gt;">
											<path id="&lt;Path&gt;" class="s31" d="m792.4 311.4c0 1-0.8 1.8-1.8 1.8-0.9 0-1.7-0.8-1.7-1.8 0-1 0.8-1.8 1.7-1.8 1 0 1.8 0.8 1.8 1.8z"/>
										</g>
										<g id="&lt;Group&gt;">
											<path id="&lt;Path&gt;" class="s10" d="m784.4 311.4c0 1-0.8 1.8-1.8 1.8-1 0-1.8-0.8-1.8-1.8 0-1 0.8-1.8 1.8-1.8 1 0 1.8 0.8 1.8 1.8z"/>
										</g>
									</g>
									<g id="&lt;Group&gt;">
										<g id="&lt;Group&gt;">
											<path id="&lt;Path&gt;" class="s10" d="m733.2 322.9h-12.7v0.5h12.7z"/>
										</g>
										<g id="&lt;Group&gt;">
											<path id="&lt;Path&gt;" class="s10" d="m743.2 322.9v0.5h16.5v-0.5z"/>
										</g>
										<g id="&lt;Group&gt;">
											<path id="&lt;Path&gt;" class="s10" d="m741.7 322.9h-6.8v0.5h6.8z"/>
										</g>
										<g id="&lt;Group&gt;">
											<path id="&lt;Path&gt;" class="s10" d="m766 322.9h-3.9v0.5h3.9z"/>
										</g>
										<g id="&lt;Group&gt;">
											<path id="&lt;Path&gt;" class="s10" d="m787.2 322.9h-20.4v0.5h20.4z"/>
										</g>
										<g id="&lt;Group&gt;">
											<path id="&lt;Path&gt;" class="s10" d="m792.1 322.9h-4.2v0.5h4.2z"/>
										</g>
										<g id="&lt;Group&gt;">
											<path id="&lt;Path&gt;" class="s10" d="m792.6 322.9v0.5h6.8v-0.5z"/>
										</g>
										<g id="&lt;Group&gt;">
											<path id="&lt;Path&gt;" class="s10" d="m733.2 324.1h-12.7v0.8h12.7z"/>
										</g>
										<g id="&lt;Group&gt;">
											<path id="&lt;Path&gt;" class="s10" d="m741.7 324.1h-6.8v0.8h6.8z"/>
										</g>
										<g id="&lt;Group&gt;">
											<path id="&lt;Path&gt;" class="s10" d="m743.2 324.1v0.8h16.5v-0.8z"/>
										</g>
										<g id="&lt;Group&gt;">
											<path id="&lt;Path&gt;" class="s10" d="m766 324.1h-3.9v0.8h3.9z"/>
										</g>
										<g id="&lt;Group&gt;">
											<path id="&lt;Path&gt;" class="s10" d="m766.8 324.1v0.8h11.9v-0.5h0.7v0.5h7.8v-0.8z"/>
										</g>
										<g id="&lt;Group&gt;">
											<path id="&lt;Path&gt;" class="s10" d="m792.1 324.1h-4.2v0.8h4.2z"/>
										</g>
										<g id="&lt;Group&gt;">
											<path id="&lt;Path&gt;" class="s10" d="m792.6 324.1v0.8h6.8v-0.8z"/>
										</g>
										<g id="&lt;Group&gt;">
											<path id="&lt;Path&gt;" class="s10" d="m741.9 330.5h-21.4v0.4h21.4z"/>
										</g>
										<g id="&lt;Group&gt;">
											<path id="&lt;Path&gt;" class="s10" d="m742.4 330.5v0.4h8.5v-0.4z"/>
										</g>
										<g id="&lt;Group&gt;">
											<path id="&lt;Path&gt;" class="s10" d="m752.9 330.5v0.4h6.8v-0.4z"/>
										</g>
										<g id="&lt;Group&gt;">
											<path id="&lt;Path&gt;" class="s10" d="m778.7 330.5h-16.6v0.4h16.6z"/>
										</g>
										<g id="&lt;Group&gt;">
											<path id="&lt;Path&gt;" class="s10" d="m788.4 330.5v0.4h11v-0.4z"/>
										</g>
										<g id="&lt;Group&gt;">
											<path id="&lt;Path&gt;" class="s10" d="m787.2 330.5h-7.8v0.4h7.8z"/>
										</g>
										<g id="&lt;Group&gt;">
											<path id="&lt;Path&gt;" class="s10" d="m742.4 331.7v1.9h8.5v-1.9z"/>
										</g>
										<g id="&lt;Group&gt;">
											<path id="&lt;Path&gt;" class="s10" d="m741.9 331.7h-21.4v1.9h21.4z"/>
										</g>
										<g id="&lt;Group&gt;">
											<path id="&lt;Path&gt;" class="s10" d="m752.9 331.7v1.9h6.8v-1.9z"/>
										</g>
										<g id="&lt;Group&gt;">
											<path id="&lt;Path&gt;" class="s10" d="m787.2 331.7h-7.8v1.7h-0.7v-1.7h-16.6v1.9h25.1z"/>
										</g>
										<g id="&lt;Group&gt;">
											<path id="&lt;Path&gt;" class="s10" d="m788.4 331.7v1.9h3.9v-1.2h3.2v1.2h3.9v-1.9z"/>
										</g>
										<g id="&lt;Group&gt;">
											<path id="&lt;Path&gt;" class="s10" d="m732.2 341h-11.4v2.3h6.8v-2.1h4.6z"/>
										</g>
										<g id="&lt;Group&gt;">
											<path id="&lt;Path&gt;" class="s10" d="m775.5 341v0.2h3.4v-0.2z"/>
										</g>
										<g id="&lt;Group&gt;">
											<path id="&lt;Path&gt;" class="s10" d="m788.7 341v0.2h4.4v2.1h6.5v-2.3z"/>
										</g>
										<g id="&lt;Group&gt;">
											<path id="&lt;Path&gt;" class="s10" d="m782.6 341v0.2h4.9v-0.2z"/>
										</g>
										<g id="&lt;Group&gt;">
											<path id="&lt;Path&gt;" class="s10" d="m742.7 354.8v0.9h8.5v-0.9z"/>
										</g>
										<g id="&lt;Group&gt;">
											<path id="&lt;Path&gt;" class="s10" d="m743.9 350.2v1.4h7.3v-1.4z"/>
										</g>
										<g id="&lt;Group&gt;">
											<path id="&lt;Path&gt;" class="s10" d="m720.8 350.2v1.4h8.2v-1.2h0.3v1.2h1.7v-1.4z"/>
										</g>
										<g id="&lt;Group&gt;">
											<path id="&lt;Path&gt;" class="s10" d="m731.2 350.2v1.4h9.3v-1.4z"/>
										</g>
										<g id="&lt;Group&gt;">
											<path id="&lt;Path&gt;" class="s10" d="m731.2 354.8v0.9h11v-0.9z"/>
										</g>
										<g id="&lt;Group&gt;">
											<path id="&lt;Path&gt;" class="s10" d="m729 354.8h-8.2v0.9h8.2z"/>
										</g>
										<g id="&lt;Group&gt;">
											<path id="&lt;Path&gt;" class="s10" d="m729.3 354.8v0.9h1.7v-0.9z"/>
										</g>
										<g id="&lt;Group&gt;">
											<path id="&lt;Path&gt;" class="s10" d="m758.7 350.2h-5.6v1.4h5.6z"/>
										</g>
										<g id="&lt;Group&gt;">
											<path id="&lt;Path&gt;" class="s10" d="m758.7 354.8h-5.6v0.9h5.6z"/>
										</g>
										<g id="&lt;Group&gt;">
											<path id="&lt;Path&gt;" class="s10" d="m782.6 350.2v1.4h4.9v-1.4z"/>
										</g>
										<g id="&lt;Group&gt;">
											<path id="&lt;Path&gt;" class="s10" d="m762.4 350.2v1.4h16.5v-1.4z"/>
										</g>
										<g id="&lt;Group&gt;">
											<path id="&lt;Path&gt;" class="s10" d="m761.5 363.7v1.4h16.6v-1.4z"/>
										</g>
										<g id="&lt;Group&gt;">
											<path id="&lt;Path&gt;" class="s10" d="m781.4 363.7v1.4h16.6v-1.4z"/>
										</g>
										<g id="&lt;Group&gt;">
											<path id="&lt;Path&gt;" class="s10" d="m779.2 354.8h-16.8v0.9h16.8z"/>
										</g>
										<g id="&lt;Group&gt;">
											<path id="&lt;Path&gt;" class="s10" d="m782.6 354.8v0.9h4.9v-0.9z"/>
										</g>
										<g id="&lt;Group&gt;">
											<path id="&lt;Path&gt;" class="s10" d="m788.7 350.2v1.4h3.9v-1.4z"/>
										</g>
										<g id="&lt;Group&gt;">
											<path id="&lt;Path&gt;" class="s10" d="m795.7 350.2v1.4h3.9v-1.4z"/>
										</g>
										<g id="&lt;Group&gt;">
											<path id="&lt;Path&gt;" class="s10" d="m788.7 354.8v0.9h3.9v-0.9z"/>
										</g>
										<g id="&lt;Group&gt;">
											<path id="&lt;Path&gt;" class="s10" d="m795.7 354.8v0.9h3.9v-0.9z"/>
										</g>
										<g id="&lt;Group&gt;">
											<path id="&lt;Path&gt;" class="s10" d="m751 358.6v0.2h4.4v2.1h6.6v-2.3z"/>
										</g>
										<g id="&lt;Group&gt;">
											<path id="&lt;Path&gt;" class="s10" d="m744.9 367.8v1.4h4.9v-1.4z"/>
										</g>
										<g id="&lt;Group&gt;">
											<path id="&lt;Path&gt;" class="s10" d="m724.7 367.8v1.4h16.6v-1.4z"/>
										</g>
										<g id="&lt;Group&gt;">
											<path id="&lt;Path&gt;" class="s10" d="m741.5 372.4h-16.8v0.9h16.8z"/>
										</g>
										<g id="&lt;Group&gt;">
											<path id="&lt;Path&gt;" class="s10" d="m744.9 372.4v0.9h4.9v-0.9z"/>
										</g>
										<g id="&lt;Group&gt;">
											<path id="&lt;Path&gt;" class="s10" d="m751 367.8v1.4h3.9v-1.4z"/>
										</g>
										<g id="&lt;Group&gt;">
											<path id="&lt;Path&gt;" class="s10" d="m758.1 367.8v1.4h3.9v-1.4z"/>
										</g>
										<g id="&lt;Group&gt;">
											<path id="&lt;Path&gt;" class="s10" d="m751 372.4v0.9h3.9v-0.9z"/>
										</g>
										<g id="&lt;Group&gt;">
											<path id="&lt;Path&gt;" class="s10" d="m758.1 372.4v0.9h3.9v-0.9z"/>
										</g>
										<g id="&lt;Group&gt;">
											<path id="&lt;Path&gt;" class="s10" d="m733.2 319.3h-12.7v1.7h12.7z"/>
										</g>
										<g id="&lt;Group&gt;">
											<path id="&lt;Path&gt;" class="s10" d="m741.7 319.3h-6.8v1.7h6.8z"/>
										</g>
										<g id="&lt;Group&gt;">
											<path id="&lt;Path&gt;" class="s10" d="m743.2 319.3v1.7h16.5v-1.7z"/>
										</g>
										<g id="&lt;Group&gt;">
											<path id="&lt;Path&gt;" class="s10" d="m787.2 321v-1.7h-25.1v1.7h3.9v-1.3h0.8v1.3z"/>
										</g>
										<g id="&lt;Group&gt;">
											<path id="&lt;Path&gt;" class="s10" d="m787.9 319.3v1.7h4.2v-0.5h0.5v0.5h6.8v-1.7z"/>
										</g>
									</g>
								</g>
							</g>
							<g id="&lt;Group&gt;">
								<g id="&lt;Group&gt;">
									<g id="&lt;Group&gt;">
										<path id="&lt;Path&gt;" class="s32" d="m656.7 465.5v5.6l68.7-0.4v-5.6z"/>
									</g>
									<g id="&lt;Group&gt;">
										<path id="&lt;Path&gt;" class="s33" d="m523.6 466.3l-4.2 5.6 154.9-0.9v-5.6z"/>
									</g>
								</g>
								<path id="&lt;Path&gt;" class="s14" d="m539.4 461.5l-15.8 4.8 201.8-1.2-4.3-4.7z"/>
							</g>
							<g id="&lt;Group&gt;">
								<g id="&lt;Group&gt;">
									<path id="&lt;Path&gt;" class="s34" d="m812.1 471.9h-50.6c5-7.5 13.2-14.8 28.7-13.9q2.9 0.2 5.5 0.9c8.5 2 14.4 7.5 16.4 13z"/>
								</g>
								<g id="&lt;Group&gt;">
									<path id="&lt;Path&gt;" class="s31" d="m812.1 471.9h-34.4c3.6-5.5 9.1-11 18-13 8.5 2 14.4 7.5 16.4 13z"/>
								</g>
							</g>
						</g>
						<g id="&lt;Group&gt;">
							<path id="&lt;Path&gt;" class="s14" d="m902.5 461.3c0.5 5.9-4 10.7-10 10.7h-33.6c-6 0-10.2-4.8-9.5-10.7l8.6-68.1c0.7-5.9 4.6-10.8 8.7-10.8h23c4.1 0 7.7 4.9 8.1 10.8z"/>
							<path id="&lt;Path&gt;" class="s15" d="m893.4 459.4c0.3 4.6-3.3 8.4-8 8.4h-26.9c-4.8 0-8.1-3.8-7.5-8.4l6.8-53.2c0.6-4.7 3.7-8.4 6.9-8.4h18.4c3.3 0 6.2 3.7 6.5 8.4z"/>
							<g id="&lt;Group&gt;">
								<path id="&lt;Compound Path&gt;" fill-rule="evenodd" class="s14" d="m872.9 463.2c-9.8 0-17.8-8-17.8-17.7 0-9.8 8-17.8 17.8-17.8 9.7 0 17.7 8 17.7 17.8 0 9.7-8 17.7-17.7 17.7zm0-34.2c-9.1 0-16.5 7.4-16.5 16.5 0 9 7.4 16.4 16.5 16.4 9 0 16.4-7.4 16.4-16.4 0-9.1-7.4-16.5-16.4-16.5z"/>
								<path id="&lt;Path&gt;" class="s14" d="m872.9 431.8c-7.6 0-13.7 6.2-13.7 13.7 0 7.5 6.1 13.6 13.7 13.6 7.5 0 13.6-6.1 13.6-13.6 0-7.5-6.1-13.7-13.6-13.7z"/>
							</g>
							<g id="&lt;Group&gt;">
								<path id="&lt;Compound Path&gt;" fill-rule="evenodd" class="s14" d="m872.9 423.5c-5.6 0-10.1-4.5-10.1-10 0-5.5 4.5-10 10.1-10 5.5 0 10 4.5 10 10 0 5.5-4.5 10-10 10zm0-19.3c-5.2 0-9.3 4.2-9.3 9.3 0 5.1 4.1 9.3 9.3 9.3 5.1 0 9.2-4.2 9.2-9.3 0-5.1-4.1-9.3-9.2-9.3z"/>
								<path id="&lt;Path&gt;" class="s14" d="m872.9 405.8c-4.3 0-7.7 3.5-7.7 7.7 0 4.2 3.4 7.7 7.7 7.7 4.2 0 7.7-3.5 7.7-7.7 0-4.2-3.5-7.7-7.7-7.7z"/>
							</g>
						</g>
						<g id="&lt;Group&gt;">
							<g id="&lt;Group&gt;">
								<g id="&lt;Group&gt;">
									<g id="&lt;Group&gt;">
										<g id="&lt;Group&gt;">
											<path id="&lt;Path&gt;" class="s35" d="m533.9 801.5c-8.4-4.7-15.5-18.4-18.9-26.8-5.4-13.6-3.7 10.1-14.1 7.5-4.3-1.1-7.2 5.3-8.2 9-2.4 8.8-0.5 23.3 1 29.1 12.5 1.6 18.9 1.6 31.5 1.7 7.2 0.1 22.9 0.2 27.2-6.4-3.4-9.2-11.2-9.9-18.5-14.1z"/>
										</g>
										<g id="&lt;Group&gt;">
											<path id="&lt;Path&gt;" class="s36" d="m496.4 733.5c-0.2 10.4-1.9 20.3-0.9 31 0.8 9.1-1.6 23.3 5.7 30 14.4-7.1 14.2-39.7 18.2-53.7z"/>
										</g>
										<g id="&lt;Group&gt;">
											<path id="&lt;Path&gt;" class="s35" d="m487.4 765.7l28.8 1.8q1.3-5.5 2.6-11.1c11.9-51.8 30.4-108.5 33.8-163.2l-51.1-11.2c-9.2 1-14.4 32.8-16 43.9-3.4 24.4-0.3 49.5 0.6 74 0.9 20.9 2.2 43.6 1.3 65.8z"/>
										</g>
									</g>
									<g id="&lt;Group&gt;">
										<g id="&lt;Group&gt;">
											<path id="&lt;Path&gt;" class="s35" d="m658.8 801.5c-8.4-4.7-15.4-18.4-18.8-26.8-5.4-13.6-3.7 10.1-14.2 7.5-4.3-1.1-7.1 5.3-8.1 9-2.4 8.8-0.6 23.3 1 29.1 12.4 1.6 18.9 1.6 31.4 1.7 7.3 0.1 22.9 0.2 27.3-6.4-3.4-9.2-11.2-9.9-18.6-14.1z"/>
										</g>
										<g id="&lt;Group&gt;">
											<path id="&lt;Path&gt;" class="s36" d="m621.3 733.5c-0.2 10.4-1.8 20.3-0.9 31 0.8 9.1-1.5 23.3 5.8 30 14.3-7.1 14.2-39.7 18.2-53.7z"/>
										</g>
										<g id="&lt;Group&gt;">
											<path id="&lt;Path&gt;" class="s35" d="m677.6 593.2q0 0.1 0 0.2c-2.4 37.7-12 76.4-21.6 113.8-4.3 16.7-8.6 33.2-12.2 49.2q-1.3 5.6-2.6 11.1l-28.8-1.8c0.8-22.2-0.5-44.9-1.3-65.8-1-24.5-4.1-49.6-0.6-74 0.3-2.4 0.8-5.8 1.5-9.6 1.8-9.6 4.6-22 8.5-29 1.8-3 3.7-5.1 5.9-5.3z"/>
										</g>
									</g>
								</g>
								<g id="&lt;Group&gt;">
									<path id="&lt;Path&gt;" class="s35" d="m677.6 593.4c-0.7 2.1-1.9 4.3-3.7 6.5-7 8.7-20.5 12.9-35.5 14.8-8.6 1.1-17.7 1.5-26.4 1.6-10.2 0.1-19.8-0.2-27.2-0.2-20.8 0-41.5 0-62-1.7-11.2-1-25.3 0-37.4-1.6-4-0.6-7.8-1.4-11.1-2.6l5.7-67c39-3.4 58-8.4 96-0.4 13 2.7 111.6 20.1 101.6 50.6z"/>
								</g>
								<g id="&lt;Group&gt;">
									<path id="&lt;Path&gt;" class="s37" d="m656 707.2c-4.3 16.7-8.6 33.2-12.2 49.2q-1.3 5.6-2.6 11.1l-28.8-1.8c0.8-22.2-0.5-44.9-1.3-65.8-1-24.5-4.1-49.6-0.6-74 0.3-2.4 0.8-5.8 1.5-9.6-10.2 0.1-19.8-0.2-27.2-0.2-20.8 0-41.5 0-62-1.7-11.2-1-25.3 0-37.4-1.6l3.3-31.9c4 5.7 30.8 4.7 39.3 5 18.5 0.7 36.8 0.3 55.2 1.2 11.2 0.6 24.3 0.2 37.3 0.2 14.6 0.1 28.9 0.9 40.2 4.6-9.2 1.2-16.5 4.3-24.9 8.1 5.1 3 13.7 4.5 18.6 7-6.6-0.8-11.9 2.4-16 7.7-10.5 13.7-13.4 41.6-14 52.8-0.7 12.4 0.4 29.4 11.4 37.5 7.1 5.2 13.6 4.4 20.2 2.2z"/>
								</g>
							</g>
							<g id="&lt;Group&gt;">
								<g id="&lt;Group&gt;">
									<g id="&lt;Group&gt;">
										<path id="&lt;Compound Path&gt;" fill-rule="evenodd" class="s38" d="m506.4 261h-5.7c-6.3 0-11.3-4.9-11.3-11v-3.4c0-6.1 5-11.1 11.3-11.1h5.7c6.3 0 11.3 5 11.3 11.1v3.4c0 6.1-5 11-11.3 11zm-5.7-23.6c-5.1 0-9.2 4.1-9.2 9.2v3.4c0 5 4.1 9.1 9.2 9.1h5.7c5.1 0 9.2-4.1 9.2-9.1v-3.4c0-5.1-4.1-9.2-9.2-9.2z"/>
										<g id="&lt;Group&gt;">
											<g id="&lt;Group&gt;">
												<path id="&lt;Path&gt;" class="s39" d="m501.2 255.2c-0.3 2.6-1.1 11.8-1 16.9 0.2 6.5 1 13.1 2.3 19.3-7.1 2.7-17.8-6.2-22.4-10.9-7-7-10.9-15.6-12.1-25.4z"/>
												<path id="&lt;Path&gt;" class="s40" d="m496.2 260.3c-4.2-0.1-7.1 6.7-7.4 10.2-0.7 6.5 5.5 12.6 4.2 18.6-4.8-1.8-10.6-8.1-14.2-11.7-3.8-3.8-10.6-10.9-10.3-16.6z"/>
											</g>
											<g id="&lt;Group&gt;">
												<path id="&lt;Path&gt;" class="s36" d="m505.9 268.9c-0.4 11.3-2.6 22.6-2.6 24.5q0 0 0 0.1 0 0.3 0 0.6c0 0.8-0.1 1.7-0.5 2.5-0.4 0.7-1 1.4-2 2-4.1 2.1-9.4 2.3-14.4 1.3q-1.2-0.2-2.5-0.5-0.8-0.2-1.6-0.5c-1.9-0.6-3.6-1.4-5.2-2.2-2.3-1.2-4.2-2.7-5.4-4.2q-0.7-0.9-1-1.8 0 0.4 0 0.9 0 0.2 0 0.4 0 0.1 0 0.2-0.1 0.3-0.1 0.6 0 0.1 0 0.2v0.1q0 0.2 0 0.5 0 0.3 0 0.7 0 0.4-0.1 0.8 0 1 0 2.2-0.1 1.9-0.2 3.8 0 0.6 0 1.2c0 2.3-0.1 4.6-0.1 6.9q-0.1 0.3-0.1 0.6 0 2.5-0.1 4.8c0 2.1 0 3.9 0 5.6-0.1 3.1-0.1 5.2-0.1 5.3q-0.1 0-0.1 0c-3.2 0.9-8.1 1.3-13.8 1.2-10.3 0-23.1-1.4-32.3-3.8-3.6-1-6.7-2.1-8.8-3.4q-1.1-0.7-1.8-1.4 0-0.1 0-0.1-0.2-0.1-0.3-0.3c1.1-1.8 1.8-6 2.4-11.3q0-0.9 0.1-1.8 0.1-1.4 0.3-2.9c0.2-3.2 0.4-6.7 0.5-10.2 0.3-6.9 0.4-13.9 0.4-19.3 0.1-2.9 0.1-5.3 0.2-7.1q0-2.1 0-3.5c-0.2-11.8-1.6-23.5-2.4-35.3-1.3-18.1 72.9-14.3 72.9-14.3 5.6 4.3 7.5 10.6 9.1 17.6q0 0.2 0 0.3c0.5 2.2 0.9 4.4 1.5 6.6q0 0.4 0.1 0.8 0.1 0.3 0.2 0.6 0 0 0 0.1 0 0.1 0.1 0.2 0.3 1.2 0.6 2.4 0.1 0.5 0.3 1 0.6 2.1 1.5 4.2 0.3 0.4 0.7 0.7 0.6 0.7 1.1 1.6c1.3 2.2 2.2 4.9 2.7 8 0.7 4 0.9 8.4 0.8 12.8z"/>
											</g>
										</g>
										<path id="&lt;Path&gt;" class="s41" d="m502.8 296.6c-0.4 0.7-1 1.4-2 2-10.1 5.3-27.8-1.5-30.1-7.9-0.4 8.5-1.2 40.8-0.9 42.5-12.1 3.3-50.6-7.9-57-15.5 3.7-6.6 3.6-41.9 3.9-52.6l51-12c0.8 1.5-0.1 4.5-0.1 6.3-0.1 2.3-0.1 4.8 0.1 7.1 0.3 4.4 1.5 9 3.4 13 3.5 7.6 10.3 15.6 18.8 17.6 3.5 0.8 8.7 0.9 12.9-0.5z"/>
										<g id="&lt;Group&gt;">
											<path id="&lt;Path&gt;" class="s36" d="m510.5 262.1c-0.4-0.6-2.6-1.6-3.2-2.4-1.4-1.5-2.1-3.6-3.1-5.4-1.3-2.5-3.1-7.5-4.9-8.6l0.8 24.3c2.8-0.9 14.2-0.9 10.4-7.9z"/>
										</g>
										<g id="&lt;Group&gt;">
											<g id="&lt;Group&gt;">
												<g id="&lt;Group&gt;">
													<g id="&lt;Group&gt;">
														<path id="&lt;Path&gt;" class="s42" d="m502.4 248.1q-0.2 0.1-0.4 0.3-0.5 0.3-1.1 0.3c-0.8 0.1-1.7-0.3-2.3-1-1-1-1.7-2.7-1.9-4.6q0-1.1 0.1-2.1c0.2-1.3 0.7-2.3 1.3-3.1q0 0 0 0.1 0 0.1 0.1 0.2 0.3 1.2 0.6 2.4 0.1 0.5 0.3 1 0.6 2.1 1.5 4.2 0.3 0.4 0.7 0.7 0.6 0.7 1.1 1.6z"/>
													</g>
												</g>
												<g id="&lt;Group&gt;">
													<path id="&lt;Path&gt;" class="s42" d="m498.8 240.6q-1 0.1-2 0.4c-1.7 0.5-3 1.3-3.4 2.3 0.5-2.8 2.2-5 4.5-6q0.1 0.3 0.2 0.6 0 0 0 0.1 0 0.1 0.1 0.2 0.3 1.2 0.6 2.4z"/>
												</g>
											</g>
											<path id="&lt;Path&gt;" class="s43" d="m500.5 231.1c-1.7-1.7-6.2-2.2-9-0.3-3 1.6-6.8 5.9-6.2 7.2 0.2 1.1 7.9-0.4 9.8-0.9 1.8-0.6 9.9-1.2 5.4-6z"/>
										</g>
										<path id="&lt;Path&gt;" class="s43" d="m413.2 205.3c6.6-19.4 26-17.1 48.3-16.4 23.8 0.8 41.2 9.8 41.2 9.8-0.3 15.5 1.1 16.5-5 30.6-3.9 0.5-16.3 21.4-31.4 10.4 5.5 9.5 6.2 33.7 1.2 44.4-4.6 9.7-8.1 3.3-16 8.9-1.5-2.8-3.7-5.5-6-7.5 0.9 5.6 2.7 11.4 1.8 17.2-6.5 3.6-12.5 3.9-20.1 4.2-11 0.5-12.4-0.6-15.6-10.5-4.9-15.2-4.1-23.2-11-37.7-5.3-15-15.4-39.1 12.6-53.4z"/>
										<path id="&lt;Path&gt;" class="s38" d="m463.9 253.7l52.1-9 0.7 3.1-50.8 9.1z"/>
										<g id="&lt;Group&gt;">
											<g id="&lt;Group&gt;">
												<path id="&lt;Path&gt;" class="s36" d="m456.2 252.9c6.7-7.7 14.5 2 17.6 5.8 0 0-0.1 13.3-3.7 16.4-4.3 3.8-10.6 0.2-13.4-3.6-3.7-5-5.5-12.9-0.5-18.6z"/>
											</g>
											<path id="&lt;Path&gt;" class="s41" d="m456.5 257.1c2.1-5.8 7.6-3 10.1 0.9-8.6-3.2-9.5 6.7-7.4 12.3-2.1-3.9-4.4-8.5-2.7-13.2z"/>
										</g>
									</g>
									<g id="&lt;Group&gt;">
										<path id="&lt;Path&gt;" class="s30" d="m536.5 545.6q-0.2 0.1-0.4 0.2c-10.2 5.4-29.5 10.7-41.5 13.3-3.1 0.7-5.6 1.2-7.5 1.4-20.5 2.8-40.2 2.5-60.2-2-5.3-19.2-17.4-36.9-21.9-56.5-5.1-22.7-13.7-55.5-14.8-79-0.8-17.5-11.9-62.8-10.8-80.3 0.7-12.9 18.2 1.2 22.4-10.3l0.1-10.5c-0.8-6.3-1.9-13-0.8-19.5 19.2-0.8 45.8-3.3 62.8 4.8 15.3 7.2 33.7 9.7 47.3 21.9 7.8 7 10.2 66.2 14.2 119.8 3.2 42.9 7.3 82.1 15.9 88 3.6 2.5 0.9 5.6-4.8 8.7z"/>
									</g>
								</g>
								<path id="&lt;Path&gt;" class="s44" d="m536.1 545.8c-10.2 5.4-29.5 10.7-41.5 13.3-3.5-26.7 6.2-66.2 1.2-85.6-5.2-20-6.9-37.4-10.1-57.8-1.3-8.8 0.2-27.3-0.2-36.2-0.3-6.4 1.3-14.2-0.9-20.1l21.8 53.6c1.7 13.8 12.1 24.2 19 35.9 3.2 42.9 7.3 82.1 15.9 88 1 0.7 3.5 4.4-5.2 8.9z"/>
								<g id="&lt;Group&gt;">
									<g id="&lt;Group&gt;">
										<g id="&lt;Group&gt;">
											<path id="&lt;Path&gt;" class="s35" d="m486.5 297.7c0 13-10.5 23.5-23.4 23.5-13 0-23.5-10.5-23.5-23.5 0-12.9 10.5-23.4 23.5-23.4 12.9 0 23.4 10.5 23.4 23.4z"/>
										</g>
										<g id="&lt;Group&gt;">
											<path id="&lt;Path&gt;" class="s45" d="m484 297.7c0 9.5-7.7 17.2-17.2 17.2-9.4 0-17.1-7.7-17.1-17.2 0-9.4 7.7-17.1 17.1-17.1 9.5 0 17.2 7.7 17.2 17.1z"/>
										</g>
										<g id="&lt;Group&gt;">
											<path id="&lt;Path&gt;" class="s35" d="m482.3 297.7c0 6.4-5.1 11.6-11.5 11.6-6.3 0-11.5-5.2-11.5-11.6 0-6.3 5.2-11.5 11.5-11.5 6.4 0 11.5 5.2 11.5 11.5z"/>
										</g>
									</g>
									<g id="&lt;Group&gt;">
										<path id="&lt;Path&gt;" class="s46" d="m471.7 293.3c-19 6-49.5 1.6-67.7-5.7 0.1 3.6-0.8 11.6-0.6 15.3 9.3 4.1 19 4.5 29.3 5 10.7 0.5 30.5-2.3 40.2-6.7z"/>
									</g>
									<g id="&lt;Group&gt;">
										<path id="&lt;Path&gt;" class="s46" d="m477.1 297c0 2.6-2.1 4.6-4.6 4.6-2.5 0-4.6-2-4.6-4.6 0-2.5 2.1-4.6 4.6-4.6 2.5 0 4.6 2.1 4.6 4.6z"/>
									</g>
								</g>
								<g id="&lt;Group&gt;">
									<g id="&lt;Group&gt;">
										<path id="&lt;Path&gt;" class="s30" d="m561 469.1q-0.5 0.4-1 0.8c-5.4 4.1-12.4 6.3-26.1-4.3q-2.2-1.8-4.8-4c-10.8-9.7-19.8-29.3-28.1-40.6q-1.5-2-2.9-4.1c-13.7-20-26.6-48.6-26.2-72.6 0.1-10.2 2.4-17.9 12.2-20.6 6.6-1.9 19-9.3 34.9 16.1 0 0 26.1 54.6 38.3 93.1 5.6 17.9 8.2 32.4 3.7 36.2z"/>
									</g>
									<g id="&lt;Group&gt;">
										<g id="&lt;Group&gt;">
											<path id="&lt;Path&gt;" class="s36" d="m652.8 444.3c-9.6-3.2-21.4 3-30.2 6.9l8.9 9.2c6.9 1.3 9.7 1.3 16.5 1.1 18.8-0.5 20.6 2.4 27 0.7-1.4-8.3-12.6-14.7-22.2-17.9z"/>
										</g>
										<g id="&lt;Group&gt;">
											<path id="&lt;Path&gt;" class="s30" d="m638.9 462.4c-0.9 1.6-19.1 6.3-37.1 10.2-15 3.3-29.7 6.2-34.1 6.5-13.1 0.9-26-4-33.8-13.5-4-4.9-6.6-11.1-7.3-18.4q0-0.8-0.1-1.5l16.7-12.7c4.8-1 9.3-0.9 14.1-0.1 16.7 2.7 35.5 13.8 72.7 14.1 0 0 10.7 11.4 8.9 15.4z"/>
										</g>
									</g>
								</g>
								<g id="&lt;Group&gt;">
									<g id="&lt;Group&gt;">
										<path id="&lt;Path&gt;" class="s44" d="m601.8 472.6c-15 3.3-29.7 6.2-34.1 6.5-13.1 0.9-26-4-33.8-13.5q-2.2-1.8-4.8-4c-10.8-9.7-19.8-29.3-28.1-40.6q-1.5-2-2.9-4.1c-6.6-19.4-14.3-30.9-13.6-50.8 6.9 32.1 35.9 72.4 42.1 81.1 5.1 7 10.9 13.6 18 19.3-0.9-4.7-0.7-10-0.3-14.7 3.8 9.4 9 15 15.7 18.1 7.3 3.4 16.2 4 26.8 3.4 4.8-0.2 9.9-0.4 15-0.7z"/>
									</g>
								</g>
							</g>
							<g id="&lt;Group&gt;">
								<g id="&lt;Group&gt;">
									<g id="&lt;Group&gt;">
										<g id="&lt;Group&gt;">
											<path id="&lt;Path&gt;" class="s47" d="m378.5 686.5c0 2.6-1.5 4.7-3.3 4.7h-22.2c-1.9 0-3.3-2.1-3.3-4.7 0-2.7 1.4-4.8 3.3-4.8h22.2c1.8 0 3.3 2.1 3.3 4.8z"/>
										</g>
										<g id="&lt;Group&gt;">
											<path id="&lt;Path&gt;" class="s47" d="m368.7 688.5c7.9-1.2 15.9-0.7 23.7-2 7.9-1.3 14.5-5.6 21-10.1 6.4-4.3 12.8-8.8 19.9-12 7.8-3.4 16.7-3.2 24.9-4.3 2.4-0.4 1.4-4-1-3.7-8.2 1.2-16.9 1.1-24.7 4.3-7.2 2.9-13.6 7.4-20 11.7-6.6 4.6-13.1 9-21.1 10.5-7.8 1.4-15.8 0.7-23.7 2-2.4 0.3-1.3 4 1 3.6z"/>
										</g>
									</g>
								</g>
								<g id="&lt;Group&gt;">
									<g id="&lt;Group&gt;">
										<path id="&lt;Path&gt;" class="s48" d="m616.6 623.1v5.9c0 6.3-5.1 11.3-11.3 11.3h-259.3c-6.3 0-11.4-5-11.4-11.3v-5.9c0-6.2 5.1-11.3 11.4-11.3h259.3c6.2 0 11.3 5.1 11.3 11.3z"/>
									</g>
									<g id="&lt;Group&gt;">
										<path id="&lt;Path&gt;" class="s47" d="m628.5 611.8v1c0 7.1-4.9 13.2-11.9 15.7v0.5c0 6.3-5.1 11.3-11.3 11.3h-159.8c-6 0-10.9-4.6-11.3-10.5q-0.1-0.4-0.1-0.8v-5.9c0-6.2 5.1-11.3 11.4-11.3z"/>
									</g>
								</g>
								<g id="&lt;Group&gt;">
									<g id="&lt;Group&gt;">
										<path id="&lt;Path&gt;" class="s47" d="m493.5 671.5h-28.8l-89.2-45.4h205.6z"/>
									</g>
									<g id="&lt;Group&gt;">
										<path id="&lt;Path&gt;" class="s48" d="m482.3 671.5h-17.9l-89.2-45.4h64.1z"/>
									</g>
								</g>
								<g id="&lt;Group&gt;">
									<path id="&lt;Path&gt;" class="s47" d="m485.1 722.3h-13.9v-48.5h13.9z"/>
								</g>
								<g id="&lt;Group&gt;">
									<path id="&lt;Path&gt;" class="s49" d="m481.6 767.7h-9.7v-72.7h9.7z"/>
									<g id="&lt;Group&gt;">
										<path id="&lt;Path&gt;" class="s47" d="m489.3 767.7h-22.3v-72.7h22.3z"/>
									</g>
									<g id="&lt;Group&gt;">
										<path id="&lt;Path&gt;" class="s50" d="m476.8 767.7h-9.8v-72.7h9.8z"/>
									</g>
								</g>
								<g id="&lt;Group&gt;">
									<g id="&lt;Group&gt;">
										<path id="&lt;Path&gt;" class="s48" d="m496.3 676.2c0 2.6-1.6 4.7-3.7 4.7h-28.9c-2.1 0-3.7-2.1-3.7-4.7 0-1.3 0.4-2.4 1.1-3.3 0.6-0.8 1.5-1.4 2.6-1.4h28.9c2.1 0 3.7 2.1 3.7 4.7z"/>
									</g>
									<g id="&lt;Group&gt;">
										<path id="&lt;Path&gt;" class="s47" d="m496.3 676.2c0 2.6-1.6 4.7-3.7 4.7h-10.8c-2 0-3.6-2.1-3.6-4.7 0-1.3 0.4-2.4 1-3.3 0.7-0.8 1.6-1.4 2.6-1.4h10.8c2.1 0 3.7 2.1 3.7 4.7z"/>
									</g>
								</g>
								<g id="&lt;Group&gt;">
									<g id="&lt;Group&gt;">
										<g id="&lt;Group&gt;">
											<g id="&lt;Group&gt;">
												<path id="&lt;Path&gt;" class="s47" d="m485.7 762.9v40.6c0 2.2-1 4.2-2.6 5.5q-0.9 0.6-1.9 1-1.1 0.5-2.4 0.5-1.3 0-2.5-0.5-1-0.4-1.9-1-0.3-0.3-0.6-0.6c-1.2-1.2-2-3-2-4.9v-40.6c0-2.2 1-4.2 2.6-5.5q0.9-0.6 1.9-1 1.2-0.5 2.5-0.5 1.3 0 2.4 0.5 1 0.4 1.9 1 0.3 0.3 0.6 0.6c1.2 1.2 2 3 2 4.9z"/>
											</g>
										</g>
										<g id="&lt;Group&gt;">
											<path id="&lt;Path&gt;" class="s48" d="m479.8 788.3c0 0.6-0.5 1-1 1-0.6 0-1-0.4-1-1v-23.7c0-0.6 0.4-1 1-1 0.5 0 1 0.4 1 1z"/>
										</g>
									</g>
									<g id="&lt;Group&gt;">
										<g id="&lt;Group&gt;">
											<g id="&lt;Group&gt;">
												<path id="&lt;Path&gt;" class="s47" d="m482.3 801.1h-9.4v-13.7h9.4z"/>
											</g>
											<g id="&lt;Group&gt;">
												<path id="&lt;Path&gt;" class="s50" d="m476.4 801.1h-3.5v-13.7h3.5z"/>
											</g>
										</g>
										<g id="&lt;Group&gt;">
											<g id="&lt;Group&gt;">
												<g id="&lt;Group&gt;">
													<path id="&lt;Path&gt;" class="s51" d="m474 810c0 7.6-6.2 13.7-13.8 13.7-7.6 0-13.7-6.1-13.7-13.7 0-7.6 6.1-13.7 13.7-13.7 7.6 0 13.8 6.1 13.8 13.7z"/>
												</g>
												<g id="&lt;Group&gt;">
													<path id="&lt;Path&gt;" class="s52" d="m467.1 810c0 3.8-3.1 6.9-6.9 6.9-3.8 0-6.8-3.1-6.8-6.9 0-3.8 3-6.9 6.8-6.9 3.8 0 6.9 3.1 6.9 6.9z"/>
												</g>
											</g>
											<g id="&lt;Group&gt;">
												<g id="&lt;Group&gt;">
													<g id="&lt;Group&gt;">
														<path id="&lt;Path&gt;" class="s50" d="m484 805.4h-39.8c0.5-7 9.2-12.7 19.9-12.7q2.3 0 4.4 0.3c8.6 1.3 15.1 6.3 15.5 12.4z"/>
													</g>
													<g id="&lt;Group&gt;">
														<path id="&lt;Path&gt;" class="s47" d="m484 805.4h-31.1c0.4-6.1 6.9-11.1 15.6-12.4 8.6 1.3 15.1 6.3 15.5 12.4z"/>
													</g>
												</g>
											</g>
										</g>
									</g>
								</g>
								<g id="&lt;Group&gt;">
									<g id="&lt;Group&gt;">
										<g id="&lt;Group&gt;">
											<g id="&lt;Group&gt;">
												<path id="&lt;Path&gt;" class="s47" d="m360.4 799.3h-9.4v-13.7h9.4z"/>
											</g>
											<path id="&lt;Path&gt;" class="s53" d="m354.5 799.3h-3.5v-13.7h3.5z"/>
										</g>
										<g id="&lt;Group&gt;">
											<g id="&lt;Group&gt;">
												<g id="&lt;Group&gt;">
													<path id="&lt;Path&gt;" class="s51" d="m352.1 808.2c0 7.6-6.2 13.7-13.7 13.7-7.6 0-13.8-6.1-13.8-13.7 0-7.6 6.2-13.7 13.8-13.7 7.5 0 13.7 6.1 13.7 13.7z"/>
												</g>
												<g id="&lt;Group&gt;">
													<path id="&lt;Path&gt;" class="s52" d="m345.2 808.2c0 3.8-3 6.9-6.8 6.9-3.8 0-6.9-3.1-6.9-6.9 0-3.8 3.1-6.8 6.9-6.8 3.8 0 6.8 3 6.8 6.8z"/>
												</g>
											</g>
											<g id="&lt;Group&gt;">
												<g id="&lt;Group&gt;">
													<g id="&lt;Group&gt;">
														<path id="&lt;Path&gt;" class="s50" d="m362.1 803.6h-39.7c0.4-7 9.1-12.7 19.8-12.7q2.3 0 4.4 0.4c8.6 1.2 15.2 6.3 15.5 12.3z"/>
													</g>
													<g id="&lt;Group&gt;">
														<path id="&lt;Path&gt;" class="s47" d="m362.1 803.6h-31c0.3-6 6.9-11.1 15.5-12.3 8.6 1.2 15.2 6.3 15.5 12.3z"/>
													</g>
												</g>
											</g>
										</g>
									</g>
									<g id="&lt;Group&gt;">
										<path id="&lt;Path&gt;" class="s47" d="m467.1 746.1c-7.7 1.3-110.7 23.5-124.1 37.2-3.6 3.7 5.4 5.8 9.3 5l114.8-21.5z"/>
									</g>
									<g id="&lt;Group&gt;">
										<path id="&lt;Path&gt;" class="s50" d="m467.1 746.1v10.7c-17.2 2.8-108.2 18.1-123.1 27.7-0.9 0.6-1.1 1.5-0.9 2.1-1.1-0.9-1.4-2-0.1-3.3 13.4-13.7 116.4-35.9 124.1-37.2z"/>
									</g>
									<g id="&lt;Group&gt;">
										<path id="&lt;Path&gt;" class="s50" d="m467 746.1v2.2c-7.4 1.4-105.9 22.2-124.8 36q0.2-0.5 0.7-1c13.4-13.7 116.4-35.9 124.1-37.2z"/>
									</g>
								</g>
								<g id="&lt;Group&gt;">
									<g id="&lt;Group&gt;">
										<g id="&lt;Group&gt;">
											<g id="&lt;Group&gt;">
												<path id="&lt;Path&gt;" class="s47" d="m595.9 799.3h9.4v-13.7h-9.4z"/>
											</g>
											<path id="&lt;Path&gt;" class="s53" d="m601.8 799.3h3.5v-13.7h-3.5z"/>
										</g>
										<g id="&lt;Group&gt;">
											<g id="&lt;Group&gt;">
												<g id="&lt;Group&gt;">
													<path id="&lt;Path&gt;" class="s51" d="m604.2 808.2c0 7.6 6.2 13.7 13.7 13.7 7.6 0 13.8-6.1 13.8-13.7 0-7.6-6.2-13.7-13.8-13.7-7.5 0-13.7 6.1-13.7 13.7z"/>
												</g>
												<g id="&lt;Group&gt;">
													<path id="&lt;Path&gt;" class="s52" d="m611.1 808.2c0 3.8 3.1 6.9 6.8 6.9 3.8 0 6.9-3.1 6.9-6.9 0-3.8-3.1-6.8-6.9-6.8-3.7 0-6.8 3-6.8 6.8z"/>
												</g>
											</g>
											<g id="&lt;Group&gt;">
												<g id="&lt;Group&gt;">
													<g id="&lt;Group&gt;">
														<path id="&lt;Path&gt;" class="s50" d="m594.2 803.6h39.7c-0.4-7-9.1-12.7-19.8-12.7q-2.3 0-4.4 0.4c-8.6 1.2-15.2 6.3-15.5 12.3z"/>
													</g>
													<g id="&lt;Group&gt;">
														<path id="&lt;Path&gt;" class="s47" d="m594.2 803.6h31c-0.3-6-6.9-11.1-15.5-12.3-8.6 1.2-15.2 6.3-15.5 12.3z"/>
													</g>
												</g>
											</g>
										</g>
									</g>
									<g id="&lt;Group&gt;">
										<path id="&lt;Path&gt;" class="s47" d="m489.2 746.1c7.7 1.3 110.7 23.5 124.1 37.2 3.6 3.7-5.4 5.8-9.3 5l-114.8-21.5z"/>
									</g>
									<g id="&lt;Group&gt;">
										<path id="&lt;Path&gt;" class="s50" d="m489.2 746.1v10.7c17.2 2.8 108.2 18.1 123.2 27.7 0.8 0.6 1 1.5 0.8 2.1 1.1-0.9 1.4-2 0.1-3.3-13.4-13.7-116.4-35.9-124.1-37.2z"/>
									</g>
									<g id="&lt;Group&gt;">
										<path id="&lt;Path&gt;" class="s50" d="m489.3 746.1v2.2c7.4 1.4 105.9 22.2 124.8 36q-0.2-0.5-0.7-1c-13.4-13.7-116.4-35.9-124.1-37.2z"/>
									</g>
								</g>
								<g id="&lt;Group&gt;">
									<g id="&lt;Group&gt;">
										<path id="&lt;Path&gt;" class="s48" d="m588.3 490.7c-4.2-2.5-13.1-3-17.8-3h-84.7c2.8 7.4 5.1 15.1 7.5 22.7h79.2q0.1 0.1 0.1 0.1 0 0 0 0 0.1 0 0.1 0 0 0 0 0c0.2 0.2 0.5 0.4 0.7 0.6q0 0 0 0 0 0 0 0.1 0.3 0.4 0.5 0.8 0 0 0 0 0.3 0.9 0.5 1.7 0 0 0 0c0.1 1.9 0 3.7 0 5.5v74.7c0 6.2 5.2 11.3 11.4 11.3q1.4 0 2.7-0.3c4.9-1.2 8.7-5.8 8.7-11v-78.8c0-9.8-0.5-19.2-8.9-24.4z"/>
									</g>
									<g id="&lt;Group&gt;">
										<path id="&lt;Path&gt;" class="s48" d="m572.8 510.4q-0.1-0.2-0.1-0.2 0 0 0.1 0.2 0 0 0 0z"/>
									</g>
									<g id="&lt;Group&gt;">
										<path id="&lt;Path&gt;" class="s48" d="m572.9 510.5q0 0 0 0 0 0 0 0 0 0 0 0 0 0 0 0z"/>
									</g>
									<g id="&lt;Group&gt;">
										<path id="&lt;Path&gt;" class="s48" d="m573.1 510.7q-0.1 0-0.1-0.1 0 0 0 0 0.1 0.1 0.1 0.1 0 0 0 0z"/>
									</g>
									<g id="&lt;Group&gt;">
										<path id="&lt;Path&gt;" class="s47" d="m581.1 499.1c-4.2-2.6-14.2-3.1-19-3.1h-73.3c1.6 4.8 3 9.6 4.5 14.4h79.2q0.1 0.1 0.1 0.1 0 0 0 0 0.1 0 0.1 0 0 0 0 0c0.2 0.2 0.5 0.4 0.7 0.6q0 0 0 0 0 0 0 0.1 0.3 0.4 0.5 0.8 0 0 0 0 0.3 0.9 0.5 1.7 0 0 0 0c0.1 1.9 0 3.7 0 5.5v74.7c0 6.2 5.2 11.3 11.4 11.3q1.4 0 2.7-0.3 0.3-1.3 0.3-2.7v-78.8c0-9.7 0.8-19.2-7.7-24.3z"/>
									</g>
									<g id="&lt;Group&gt;">
										<path id="&lt;Path&gt;" class="s54" d="m577.4 494.4c9.6 0.2 13.9 8.9 13.7 17.6 0 1.8 2.8 1.8 2.8 0 0.2-5.2-0.9-10.6-4.3-14.6-3-3.8-7.4-5.7-12.2-5.8-1.9 0-1.9 2.8 0 2.8z"/>
									</g>
								</g>
								<g id="&lt;Group&gt;">
									<g id="&lt;Group&gt;">
										<g id="&lt;Group&gt;">
											<path id="&lt;Path&gt;" class="s55" d="m324.9 312.8c0.1 8.7 7.2 15.8 15.9 15.8l70.9-0.2c8.8 0 15.8-7.1 15.8-15.8v-25.4c-0.1-8.7-7.2-15.8-15.9-15.8l-70.9 0.2c-8.8 0-15.8 7.1-15.8 15.8z"/>
										</g>
										<g id="&lt;Group&gt;" style="opacity: .2;mix-blend-mode: multiply">
											<path id="&lt;Path&gt;" class="s56" d="m325 314c0.6 8.2 7.5 14.6 15.8 14.6l70.9-0.2c8.7 0 15.8-7.1 15.8-15.8v-25.4c-0.1-8.4-6.6-15.3-14.9-15.8q0 0.6 0 1.2l0.1 25.4c0 8.7-7.1 15.8-15.8 15.8l-70.9 0.2q-0.5 0-1 0z"/>
										</g>
									</g>
									<g id="&lt;Group&gt;">
										<path id="&lt;Path&gt;" class="s55" d="m513.6 557.8c-0.5 11 0.3 25.5-2.8 37.1q-0.6 2.2-1.4 4.3 0 0.2-0.1 0.3c-0.2 0.6-5.6 31.1-5.8 31.7-25.4 0.3-59.2 0.9-90 1.1-17.4 0.2-33.8 0.2-47.2 0-19.1-0.2-32-0.9-32.3-2.5-7.9 0-14.8-7-15.5-16.2l-1-13-0.4-4.1-20.3-253.1q-0.1-1.3 0-2.5c0.4-8.5 6.2-15.4 13.8-16.1 1.8-0.7 8.7-1.8 17.2-2.9 3.9-0.5 8-1 12.2-1.5 10.1-1.1 57.4-2.2 85.7-0.4q0 0 0 0c5 0.3 9.4 0.7 12.9 1.3 24.1 3.6 35.3 17.4 39.5 41.8q0.2 1.3 0.4 2.5 1.9 11 3.8 21.9 0.8 4.7 1.7 9.3 3.6 20.3 7.4 40.6 0.7 3.3 1.3 6.6 0.2 1.4 0.5 2.7c5.2 24.9 16.2 49.4 18.8 74.5 0.5 4.5 0.9 9.1 1.2 13.8 0.5 7.5 0.8 15.2 0.4 22.8z"/>
									</g>
									<g id="&lt;Group&gt;" style="opacity: .2;mix-blend-mode: multiply">
										<path id="&lt;Path&gt;" class="s56" d="m470.8 580.9c-2.3 5.7-6.2 10.3-11.3 14-37.2 26.6-137.6 6.7-142 5.7l-0.4-4.1-20.3-253.1q-0.1-1.3 0-2.5c2.8-0.8 5.6-1.6 8.3-2.5 6.8-2.1 13.6-4.2 19.7-5.3q2.1-0.4 4.1-0.6c21.3-2.3 41.9-0.2 62.8 1 18.3 1.1 40 0.9 55 12.9 15.3 12.1 15.3 33.9 17.8 51.2 5.6 39.7 10.1 81.8 10.1 123 0 18.4 3 43.7-3.8 60.3z"/>
									</g>
								</g>
								<g id="&lt;Group&gt;">
									<path id="&lt;Path&gt;" class="s55" d="m629.3 611.9v3.4c0 7.1-7.2 13.2-17.5 15.7-3.3 0.9-7 1.3-10.9 1.3h-234.6c-19.1-0.2-32-0.9-32.3-2.5-7.9 0-14.8-7-15.5-16.2l-1-13-0.4-4.1c3.8-1 7.9-1.6 12.3-1.6h271.5c15.7 0 28.4 7.6 28.4 17z"/>
								</g>
							</g>
						</g>
					</g>
					<g id="&lt;Group&gt;">
						<g id="&lt;Group&gt;">
							<path id="&lt;Path&gt;" class="s57" d="m747.7 438.7q0 1.4 0 2.8 0 0.1 0 0.1 0 0 0 0.1 0 0-0.1 0 0 0.4 0 0.7c-0.3 5.3-1.4 10.3-3.1 14.8-1.3 3.2-2.8 6.1-4.7 8.6-1.8 2.6-4 4.8-6.4 6.4h-19.9c-2.2-1.5-4.2-3.4-6-5.8-5.1-6.7-8.3-16.6-8.3-27.7q0-4.4 0.7-8.5h47.2q0.5 3.2 0.6 6.6 0 0.9 0 1.9z"/>
						</g>
						<path id="&lt;Path&gt;" class="s57" d="m747.6 441.4c0-0.3 0.1 0.5 0.1 0.2-0.1-0.3-0.1 0.5-0.1 0.2 0.1-0.5-0.2 0.3 0.1-0.1q0-0.1 0.1-0.2c0.2-0.3-0.3 0.3 0 0q0.2-0.3 0.5-0.6 0.2-0.1 0.3-0.2c0.4-0.3-0.3 0.2 0.1 0q0.3-0.3 0.7-0.5 0.9-0.6 1.8-1.1 0.9-0.5 1.9-0.9c-0.4 0.2 0.1 0 0.2 0q0.2-0.1 0.5-0.2 0.5-0.2 1.1-0.4 0.9-0.4 1.9-0.6 0.4-0.1 0.9-0.2 0.2 0 0.4-0.1c0.4 0-0.3 0.1 0.2 0 1.4-0.1 2.3 0.1 3.7 0.5 0.5 0.2-0.3-0.1 0.2 0.1q0.2 0.2 0.5 0.3 0.4 0.2 0.9 0.6c-0.3-0.3 0.1 0.1 0.1 0.1q0.2 0.2 0.4 0.4 0.2 0.1 0.4 0.3 0.2 0.3 0 0 0.1 0.2 0.2 0.3 0.3 0.4 0.5 0.9c0 0 0.2 0.5 0.1 0.2q0.1 0.2 0.1 0.4 0.2 0.5 0.3 1c0.1 0.6 0-0.3 0 0.3q0.1 0.3 0.1 0.7c0 1.3-0.5 3-1.1 4.2-1.3 2.8-3.6 4.6-6.4 6.1-1.5 0.7-2.7 1.2-4.4 1.7-1.5 0.5-3.1 1-4.8 1.3-2.2 0.5-4.6 0.9-6.7 1.7-1.3 0.5-2.5 1.2-3.3 2.4-0.9 1.3-0.7 3-0.1 4.3 1.2 2.8 4.2 3.5 6.8 2.3 1-0.4 2-1.4 2.2-2.5 0.4-1.7-0.6-3-1.8-3.8-0.9-0.6-2.1-0.2-2.6 0.6-0.6 1-0.2 2 0.7 2.6 0.4 0.3-0.3-0.2 0.1 0.1 0.3 0.3-0.2-0.3 0 0 0.2 0.4-0.1-0.4 0 0-0.1-0.5 0-0.4 0-0.1 0-0.6-0.1 0 0.1-0.5-0.1 0.1-0.3 0.4 0.1 0q-0.1 0.1-0.3 0.2c-0.2 0.2 0.4-0.2-0.1 0q-0.1 0.1-0.3 0.2c0.5-0.2 0.1 0 0 0q-0.2 0.1-0.4 0.1c-0.4 0.1 0.4 0 0 0q-0.2 0-0.4 0c-0.4 0 0.4 0.1 0 0-0.1-0.1-0.5-0.2-0.1 0-0.1-0.1-0.5-0.4-0.1-0.1q-0.2-0.1-0.3-0.3c0.3 0.4 0 0 0-0.1q-0.2-0.2-0.3-0.4c0.2 0.4 0-0.1 0-0.1 0-0.2-0.1-0.6 0-0.1q-0.1-0.1 0-0.3c0-0.4-0.1 0.4-0.1 0 0.2-0.5-0.1 0.3 0 0q0.1-0.2 0.2-0.3c-0.3 0.4-0.1 0.1 0 0.1q0.1-0.2 0.3-0.3c-0.4 0.4-0.1 0.1 0 0q0.3-0.2 0.7-0.3c0-0.1 0.5-0.3 0-0.1q0.3-0.1 0.5-0.2c2.3-0.8 4.7-1.1 7-1.6 3.3-0.8 6.6-1.9 9.6-3.5 3-1.6 5.7-3.9 7.3-6.9 1.6-3 2.3-6.7 1-10-1.3-3.2-4.1-5.4-7.5-6-2.8-0.6-5.6 0.1-8.2 1-2.2 0.8-4.4 1.8-6.3 3.2-1.6 1.2-3.3 2.8-2.8 5 0.6 2.3 4.2 1.3 3.6-1z"/>
						<path id="&lt;Path&gt;" class="s58" d="m733.6 434.9c0 17.8-9.5 32.3-21.3 32.3q-2.5 0-4.8-0.8c-5.1-6.7-8.3-16.6-8.3-27.7q0-4.4 0.7-8.5h33.5q0.2 2.3 0.2 4.7z"/>
						<path id="&lt;Path&gt;" class="s59" d="m703.3 436.8c-1.1 4.1-0.2 8.6 0.9 12.6 0.6 2.1 1.4 4.2 2.3 6.2 0.6 1.5 1.4 3 2.4 4.4 0.7 0.9 1.9 1.4 3 0.8 0.9-0.6 1.5-2.1 0.8-3.1-0.9-1.2-1.6-2.6-2.3-4q-0.1-0.3-0.2-0.5-0.1-0.2-0.2-0.4 0.2 0.4 0 0-0.3-0.7-0.5-1.4-0.6-1.5-1-3-0.4-1.5-0.7-3-0.2-0.7-0.3-1.4c0-0.1-0.1-0.9-0.1-0.4q0-0.4 0-0.8-0.2-1.4-0.1-2.8 0-0.2 0-0.5c0-0.1 0.1-0.9 0-0.3q0.1-0.6 0.3-1.2c0.3-1.2-0.4-2.4-1.5-2.7-1.2-0.4-2.4 0.3-2.8 1.5z"/>
					</g>
				</g>
			</g>
		</g>
	</g>
</svg>